%TF.GenerationSoftware,KiCad,Pcbnew,(5.1.5)-3*%
%TF.CreationDate,2020-05-16T21:05:58+02:00*%
%TF.ProjectId,30_PCB,33305f50-4342-42e6-9b69-6361645f7063,R0.7*%
%TF.SameCoordinates,Original*%
%TF.FileFunction,Copper,L2,Inr*%
%TF.FilePolarity,Positive*%
%FSLAX46Y46*%
G04 Gerber Fmt 4.6, Leading zero omitted, Abs format (unit mm)*
G04 Created by KiCad (PCBNEW (5.1.5)-3) date 2020-05-16 21:05:58*
%MOMM*%
%LPD*%
G04 APERTURE LIST*
%ADD10O,1.600000X1.600000*%
%ADD11C,1.600000*%
%ADD12R,1.600000X1.600000*%
%ADD13O,1.727200X1.727200*%
%ADD14R,0.850000X0.850000*%
%ADD15C,1.700000*%
%ADD16R,1.700000X1.700000*%
%ADD17O,1.700000X1.700000*%
%ADD18C,0.254000*%
G04 APERTURE END LIST*
D10*
X140970000Y-103378000D03*
D11*
X140970000Y-110998000D03*
D10*
X137414000Y-95000000D03*
D11*
X129794000Y-95000000D03*
D10*
X129540000Y-101000000D03*
D11*
X137160000Y-101000000D03*
D10*
X151130000Y-103378000D03*
D11*
X151130000Y-110998000D03*
D10*
X166624000Y-101346000D03*
D11*
X159004000Y-101346000D03*
D10*
X159004000Y-97536000D03*
D11*
X166624000Y-97536000D03*
D10*
X170180000Y-88392000D03*
D11*
X170180000Y-96012000D03*
X136064000Y-89916000D03*
X131064000Y-89916000D03*
X134080000Y-106680000D03*
D12*
X132080000Y-106680000D03*
D11*
X156464000Y-91868000D03*
X156464000Y-86868000D03*
X163862000Y-108204000D03*
D12*
X165862000Y-108204000D03*
D11*
X163862000Y-89662000D03*
D12*
X165862000Y-89662000D03*
D13*
X176149000Y-89408000D03*
X176022000Y-117348000D03*
X173482000Y-117348000D03*
X170942000Y-117348000D03*
X168402000Y-117348000D03*
X165862000Y-117348000D03*
X140462000Y-117348000D03*
X146558000Y-69088000D03*
X144018000Y-69088000D03*
X141478000Y-69088000D03*
X136398000Y-69088000D03*
X133858000Y-69088000D03*
X131318000Y-69088000D03*
X149098000Y-69088000D03*
X151638000Y-69088000D03*
X154178000Y-69088000D03*
X138938000Y-69088000D03*
X158242000Y-69088000D03*
X160782000Y-69088000D03*
X163322000Y-69088000D03*
X165862000Y-69088000D03*
X168402000Y-69088000D03*
X170942000Y-69088000D03*
X173482000Y-69088000D03*
X176022000Y-69088000D03*
X143002000Y-117348000D03*
X145542000Y-117348000D03*
X148082000Y-117348000D03*
X150622000Y-117348000D03*
X153162000Y-117348000D03*
X155702000Y-117348000D03*
X158242000Y-117348000D03*
X163322000Y-117348000D03*
X178689000Y-89408000D03*
X176149000Y-91948000D03*
X178689000Y-91948000D03*
X178689000Y-94488000D03*
X176149000Y-94488000D03*
D11*
X158242000Y-104474000D03*
X158242000Y-109474000D03*
D14*
X170180000Y-110998000D03*
X170180000Y-114046000D03*
X117602000Y-94996000D03*
X171450000Y-74168000D03*
X175768000Y-74168000D03*
X117602000Y-111760000D03*
X117602000Y-107442000D03*
X117602000Y-103632000D03*
X176000000Y-78000000D03*
D15*
X135506600Y-79684000D03*
X129006600Y-79684000D03*
X135506600Y-75184000D03*
X129006600Y-75184000D03*
D12*
X150000000Y-100000000D03*
D10*
X142380000Y-92380000D03*
X150000000Y-97460000D03*
X142380000Y-94920000D03*
X150000000Y-94920000D03*
X142380000Y-97460000D03*
X150000000Y-92380000D03*
X142380000Y-100000000D03*
D16*
X170000000Y-107000000D03*
D17*
X170000000Y-104460000D03*
X170000000Y-101920000D03*
D18*
G36*
X176327000Y-84548128D02*
G01*
X176412890Y-84979925D01*
X176581369Y-85386669D01*
X176825962Y-85752729D01*
X177137271Y-86064038D01*
X177503331Y-86308631D01*
X177910075Y-86477110D01*
X178341872Y-86563000D01*
X178782128Y-86563000D01*
X179213925Y-86477110D01*
X179620669Y-86308631D01*
X179986729Y-86064038D01*
X180298038Y-85752729D01*
X180542631Y-85386669D01*
X180711110Y-84979925D01*
X180797000Y-84548128D01*
X180797000Y-84127000D01*
X181340000Y-84127000D01*
X181340001Y-115726618D01*
X178556236Y-118510384D01*
X178531052Y-118531052D01*
X178510386Y-118556234D01*
X178448575Y-118631550D01*
X178409335Y-118704964D01*
X178387290Y-118746208D01*
X178349550Y-118870618D01*
X178340000Y-118967582D01*
X178340000Y-118967591D01*
X178336808Y-119000000D01*
X178340000Y-119032409D01*
X178340001Y-120340000D01*
X112660000Y-120340000D01*
X112660000Y-117127872D01*
X124257000Y-117127872D01*
X124257000Y-117568128D01*
X124342890Y-117999925D01*
X124511369Y-118406669D01*
X124755962Y-118772729D01*
X125067271Y-119084038D01*
X125433331Y-119328631D01*
X125840075Y-119497110D01*
X126271872Y-119583000D01*
X126712128Y-119583000D01*
X127143925Y-119497110D01*
X127550669Y-119328631D01*
X127916729Y-119084038D01*
X128228038Y-118772729D01*
X128472631Y-118406669D01*
X128641110Y-117999925D01*
X128727000Y-117568128D01*
X128727000Y-117200401D01*
X138963400Y-117200401D01*
X138963400Y-117495599D01*
X139020990Y-117785125D01*
X139133958Y-118057853D01*
X139297961Y-118303302D01*
X139506698Y-118512039D01*
X139752147Y-118676042D01*
X140024875Y-118789010D01*
X140314401Y-118846600D01*
X140609599Y-118846600D01*
X140899125Y-118789010D01*
X141171853Y-118676042D01*
X141417302Y-118512039D01*
X141626039Y-118303302D01*
X141732000Y-118144719D01*
X141837961Y-118303302D01*
X142046698Y-118512039D01*
X142292147Y-118676042D01*
X142564875Y-118789010D01*
X142854401Y-118846600D01*
X143149599Y-118846600D01*
X143439125Y-118789010D01*
X143711853Y-118676042D01*
X143957302Y-118512039D01*
X144166039Y-118303302D01*
X144272000Y-118144719D01*
X144377961Y-118303302D01*
X144586698Y-118512039D01*
X144832147Y-118676042D01*
X145104875Y-118789010D01*
X145394401Y-118846600D01*
X145689599Y-118846600D01*
X145979125Y-118789010D01*
X146251853Y-118676042D01*
X146497302Y-118512039D01*
X146706039Y-118303302D01*
X146812000Y-118144719D01*
X146917961Y-118303302D01*
X147126698Y-118512039D01*
X147372147Y-118676042D01*
X147644875Y-118789010D01*
X147934401Y-118846600D01*
X148229599Y-118846600D01*
X148519125Y-118789010D01*
X148791853Y-118676042D01*
X149037302Y-118512039D01*
X149246039Y-118303302D01*
X149352000Y-118144719D01*
X149457961Y-118303302D01*
X149666698Y-118512039D01*
X149912147Y-118676042D01*
X150184875Y-118789010D01*
X150474401Y-118846600D01*
X150769599Y-118846600D01*
X151059125Y-118789010D01*
X151331853Y-118676042D01*
X151577302Y-118512039D01*
X151786039Y-118303302D01*
X151893692Y-118142187D01*
X152055146Y-118358293D01*
X152273512Y-118554817D01*
X152526022Y-118704964D01*
X152802973Y-118802963D01*
X153035000Y-118682464D01*
X153035000Y-117475000D01*
X153289000Y-117475000D01*
X153289000Y-118682464D01*
X153521027Y-118802963D01*
X153797978Y-118704964D01*
X154050488Y-118554817D01*
X154268854Y-118358293D01*
X154432000Y-118139922D01*
X154595146Y-118358293D01*
X154813512Y-118554817D01*
X155066022Y-118704964D01*
X155342973Y-118802963D01*
X155575000Y-118682464D01*
X155575000Y-117475000D01*
X153289000Y-117475000D01*
X153035000Y-117475000D01*
X153015000Y-117475000D01*
X153015000Y-117221000D01*
X153035000Y-117221000D01*
X153035000Y-116013536D01*
X153289000Y-116013536D01*
X153289000Y-117221000D01*
X155575000Y-117221000D01*
X155575000Y-116013536D01*
X155829000Y-116013536D01*
X155829000Y-117221000D01*
X155849000Y-117221000D01*
X155849000Y-117475000D01*
X155829000Y-117475000D01*
X155829000Y-118682464D01*
X156061027Y-118802963D01*
X156337978Y-118704964D01*
X156590488Y-118554817D01*
X156808854Y-118358293D01*
X156970308Y-118142187D01*
X157077961Y-118303302D01*
X157286698Y-118512039D01*
X157532147Y-118676042D01*
X157804875Y-118789010D01*
X158094401Y-118846600D01*
X158389599Y-118846600D01*
X158679125Y-118789010D01*
X158951853Y-118676042D01*
X159197302Y-118512039D01*
X159406039Y-118303302D01*
X159570042Y-118057853D01*
X159683010Y-117785125D01*
X159740600Y-117495599D01*
X159740600Y-117200401D01*
X161823400Y-117200401D01*
X161823400Y-117495599D01*
X161880990Y-117785125D01*
X161993958Y-118057853D01*
X162157961Y-118303302D01*
X162366698Y-118512039D01*
X162612147Y-118676042D01*
X162884875Y-118789010D01*
X163174401Y-118846600D01*
X163469599Y-118846600D01*
X163759125Y-118789010D01*
X164031853Y-118676042D01*
X164277302Y-118512039D01*
X164486039Y-118303302D01*
X164592000Y-118144719D01*
X164697961Y-118303302D01*
X164906698Y-118512039D01*
X165152147Y-118676042D01*
X165424875Y-118789010D01*
X165714401Y-118846600D01*
X166009599Y-118846600D01*
X166299125Y-118789010D01*
X166571853Y-118676042D01*
X166817302Y-118512039D01*
X167026039Y-118303302D01*
X167132000Y-118144719D01*
X167237961Y-118303302D01*
X167446698Y-118512039D01*
X167692147Y-118676042D01*
X167964875Y-118789010D01*
X168254401Y-118846600D01*
X168549599Y-118846600D01*
X168839125Y-118789010D01*
X169111853Y-118676042D01*
X169357302Y-118512039D01*
X169566039Y-118303302D01*
X169672000Y-118144719D01*
X169777961Y-118303302D01*
X169986698Y-118512039D01*
X170232147Y-118676042D01*
X170504875Y-118789010D01*
X170794401Y-118846600D01*
X171089599Y-118846600D01*
X171379125Y-118789010D01*
X171651853Y-118676042D01*
X171897302Y-118512039D01*
X172106039Y-118303302D01*
X172212000Y-118144719D01*
X172317961Y-118303302D01*
X172526698Y-118512039D01*
X172772147Y-118676042D01*
X173044875Y-118789010D01*
X173334401Y-118846600D01*
X173629599Y-118846600D01*
X173919125Y-118789010D01*
X174191853Y-118676042D01*
X174437302Y-118512039D01*
X174646039Y-118303302D01*
X174752000Y-118144719D01*
X174857961Y-118303302D01*
X175066698Y-118512039D01*
X175312147Y-118676042D01*
X175584875Y-118789010D01*
X175874401Y-118846600D01*
X176169599Y-118846600D01*
X176459125Y-118789010D01*
X176731853Y-118676042D01*
X176977302Y-118512039D01*
X177186039Y-118303302D01*
X177350042Y-118057853D01*
X177463010Y-117785125D01*
X177520600Y-117495599D01*
X177520600Y-117200401D01*
X177463010Y-116910875D01*
X177350042Y-116638147D01*
X177186039Y-116392698D01*
X176977302Y-116183961D01*
X176731853Y-116019958D01*
X176459125Y-115906990D01*
X176169599Y-115849400D01*
X175874401Y-115849400D01*
X175584875Y-115906990D01*
X175312147Y-116019958D01*
X175066698Y-116183961D01*
X174857961Y-116392698D01*
X174752000Y-116551281D01*
X174646039Y-116392698D01*
X174437302Y-116183961D01*
X174191853Y-116019958D01*
X173919125Y-115906990D01*
X173629599Y-115849400D01*
X173334401Y-115849400D01*
X173044875Y-115906990D01*
X172772147Y-116019958D01*
X172526698Y-116183961D01*
X172317961Y-116392698D01*
X172212000Y-116551281D01*
X172106039Y-116392698D01*
X171897302Y-116183961D01*
X171651853Y-116019958D01*
X171379125Y-115906990D01*
X171089599Y-115849400D01*
X170794401Y-115849400D01*
X170504875Y-115906990D01*
X170232147Y-116019958D01*
X169986698Y-116183961D01*
X169777961Y-116392698D01*
X169672000Y-116551281D01*
X169566039Y-116392698D01*
X169357302Y-116183961D01*
X169111853Y-116019958D01*
X168839125Y-115906990D01*
X168549599Y-115849400D01*
X168254401Y-115849400D01*
X167964875Y-115906990D01*
X167692147Y-116019958D01*
X167446698Y-116183961D01*
X167237961Y-116392698D01*
X167132000Y-116551281D01*
X167026039Y-116392698D01*
X166817302Y-116183961D01*
X166571853Y-116019958D01*
X166299125Y-115906990D01*
X166009599Y-115849400D01*
X165714401Y-115849400D01*
X165424875Y-115906990D01*
X165152147Y-116019958D01*
X164906698Y-116183961D01*
X164697961Y-116392698D01*
X164592000Y-116551281D01*
X164486039Y-116392698D01*
X164277302Y-116183961D01*
X164031853Y-116019958D01*
X163759125Y-115906990D01*
X163469599Y-115849400D01*
X163174401Y-115849400D01*
X162884875Y-115906990D01*
X162612147Y-116019958D01*
X162366698Y-116183961D01*
X162157961Y-116392698D01*
X161993958Y-116638147D01*
X161880990Y-116910875D01*
X161823400Y-117200401D01*
X159740600Y-117200401D01*
X159683010Y-116910875D01*
X159570042Y-116638147D01*
X159406039Y-116392698D01*
X159197302Y-116183961D01*
X158951853Y-116019958D01*
X158679125Y-115906990D01*
X158389599Y-115849400D01*
X158094401Y-115849400D01*
X157804875Y-115906990D01*
X157532147Y-116019958D01*
X157286698Y-116183961D01*
X157077961Y-116392698D01*
X156970308Y-116553813D01*
X156808854Y-116337707D01*
X156590488Y-116141183D01*
X156337978Y-115991036D01*
X156061027Y-115893037D01*
X155829000Y-116013536D01*
X155575000Y-116013536D01*
X155342973Y-115893037D01*
X155066022Y-115991036D01*
X154813512Y-116141183D01*
X154595146Y-116337707D01*
X154432000Y-116556078D01*
X154268854Y-116337707D01*
X154050488Y-116141183D01*
X153797978Y-115991036D01*
X153521027Y-115893037D01*
X153289000Y-116013536D01*
X153035000Y-116013536D01*
X152802973Y-115893037D01*
X152526022Y-115991036D01*
X152273512Y-116141183D01*
X152055146Y-116337707D01*
X151893692Y-116553813D01*
X151786039Y-116392698D01*
X151577302Y-116183961D01*
X151331853Y-116019958D01*
X151059125Y-115906990D01*
X150769599Y-115849400D01*
X150474401Y-115849400D01*
X150184875Y-115906990D01*
X149912147Y-116019958D01*
X149666698Y-116183961D01*
X149457961Y-116392698D01*
X149352000Y-116551281D01*
X149246039Y-116392698D01*
X149037302Y-116183961D01*
X148791853Y-116019958D01*
X148519125Y-115906990D01*
X148229599Y-115849400D01*
X147934401Y-115849400D01*
X147644875Y-115906990D01*
X147372147Y-116019958D01*
X147126698Y-116183961D01*
X146917961Y-116392698D01*
X146812000Y-116551281D01*
X146706039Y-116392698D01*
X146497302Y-116183961D01*
X146251853Y-116019958D01*
X145979125Y-115906990D01*
X145689599Y-115849400D01*
X145394401Y-115849400D01*
X145104875Y-115906990D01*
X144832147Y-116019958D01*
X144586698Y-116183961D01*
X144377961Y-116392698D01*
X144272000Y-116551281D01*
X144166039Y-116392698D01*
X143957302Y-116183961D01*
X143711853Y-116019958D01*
X143439125Y-115906990D01*
X143149599Y-115849400D01*
X142854401Y-115849400D01*
X142564875Y-115906990D01*
X142292147Y-116019958D01*
X142046698Y-116183961D01*
X141837961Y-116392698D01*
X141732000Y-116551281D01*
X141626039Y-116392698D01*
X141417302Y-116183961D01*
X141171853Y-116019958D01*
X140899125Y-115906990D01*
X140609599Y-115849400D01*
X140314401Y-115849400D01*
X140024875Y-115906990D01*
X139752147Y-116019958D01*
X139506698Y-116183961D01*
X139297961Y-116392698D01*
X139133958Y-116638147D01*
X139020990Y-116910875D01*
X138963400Y-117200401D01*
X128727000Y-117200401D01*
X128727000Y-117127872D01*
X128641110Y-116696075D01*
X128472631Y-116289331D01*
X128228038Y-115923271D01*
X127916729Y-115611962D01*
X127550669Y-115367369D01*
X127143925Y-115198890D01*
X126712128Y-115113000D01*
X126271872Y-115113000D01*
X125840075Y-115198890D01*
X125433331Y-115367369D01*
X125067271Y-115611962D01*
X124755962Y-115923271D01*
X124511369Y-116289331D01*
X124342890Y-116696075D01*
X124257000Y-117127872D01*
X112660000Y-117127872D01*
X112660000Y-113621000D01*
X169116928Y-113621000D01*
X169116928Y-114471000D01*
X169129188Y-114595482D01*
X169165498Y-114715180D01*
X169224463Y-114825494D01*
X169303815Y-114922185D01*
X169400506Y-115001537D01*
X169510820Y-115060502D01*
X169630518Y-115096812D01*
X169755000Y-115109072D01*
X170605000Y-115109072D01*
X170729482Y-115096812D01*
X170849180Y-115060502D01*
X170959494Y-115001537D01*
X171056185Y-114922185D01*
X171135537Y-114825494D01*
X171194502Y-114715180D01*
X171230812Y-114595482D01*
X171243072Y-114471000D01*
X171243072Y-113621000D01*
X171230812Y-113496518D01*
X171194502Y-113376820D01*
X171135537Y-113266506D01*
X171056185Y-113169815D01*
X170959494Y-113090463D01*
X170849180Y-113031498D01*
X170729482Y-112995188D01*
X170605000Y-112982928D01*
X169755000Y-112982928D01*
X169630518Y-112995188D01*
X169510820Y-113031498D01*
X169400506Y-113090463D01*
X169303815Y-113169815D01*
X169224463Y-113266506D01*
X169165498Y-113376820D01*
X169129188Y-113496518D01*
X169116928Y-113621000D01*
X112660000Y-113621000D01*
X112660000Y-112185000D01*
X116538928Y-112185000D01*
X116551188Y-112309482D01*
X116587498Y-112429180D01*
X116646463Y-112539494D01*
X116725815Y-112636185D01*
X116822506Y-112715537D01*
X116932820Y-112774502D01*
X117052518Y-112810812D01*
X117177000Y-112823072D01*
X117316250Y-112820000D01*
X117475000Y-112661250D01*
X117475000Y-111887000D01*
X117729000Y-111887000D01*
X117729000Y-112661250D01*
X117887750Y-112820000D01*
X118027000Y-112823072D01*
X118151482Y-112810812D01*
X118271180Y-112774502D01*
X118381494Y-112715537D01*
X118478185Y-112636185D01*
X118557537Y-112539494D01*
X118616502Y-112429180D01*
X118652812Y-112309482D01*
X118665072Y-112185000D01*
X118662000Y-112045750D01*
X118503250Y-111887000D01*
X117729000Y-111887000D01*
X117475000Y-111887000D01*
X116700750Y-111887000D01*
X116542000Y-112045750D01*
X116538928Y-112185000D01*
X112660000Y-112185000D01*
X112660000Y-111335000D01*
X116538928Y-111335000D01*
X116542000Y-111474250D01*
X116700750Y-111633000D01*
X117475000Y-111633000D01*
X117475000Y-110858750D01*
X117729000Y-110858750D01*
X117729000Y-111633000D01*
X118503250Y-111633000D01*
X118662000Y-111474250D01*
X118665072Y-111335000D01*
X118652812Y-111210518D01*
X118616502Y-111090820D01*
X118557537Y-110980506D01*
X118478185Y-110883815D01*
X118445103Y-110856665D01*
X139535000Y-110856665D01*
X139535000Y-111139335D01*
X139590147Y-111416574D01*
X139698320Y-111677727D01*
X139855363Y-111912759D01*
X140055241Y-112112637D01*
X140290273Y-112269680D01*
X140551426Y-112377853D01*
X140828665Y-112433000D01*
X141111335Y-112433000D01*
X141388574Y-112377853D01*
X141649727Y-112269680D01*
X141884759Y-112112637D01*
X142084637Y-111912759D01*
X142241680Y-111677727D01*
X142349853Y-111416574D01*
X142405000Y-111139335D01*
X142405000Y-110856665D01*
X149695000Y-110856665D01*
X149695000Y-111139335D01*
X149750147Y-111416574D01*
X149858320Y-111677727D01*
X150015363Y-111912759D01*
X150215241Y-112112637D01*
X150450273Y-112269680D01*
X150711426Y-112377853D01*
X150988665Y-112433000D01*
X151271335Y-112433000D01*
X151548574Y-112377853D01*
X151809727Y-112269680D01*
X152044759Y-112112637D01*
X152244637Y-111912759D01*
X152401680Y-111677727D01*
X152509853Y-111416574D01*
X152565000Y-111139335D01*
X152565000Y-110856665D01*
X152509853Y-110579426D01*
X152401680Y-110318273D01*
X152244637Y-110083241D01*
X152044759Y-109883363D01*
X151809727Y-109726320D01*
X151548574Y-109618147D01*
X151271335Y-109563000D01*
X150988665Y-109563000D01*
X150711426Y-109618147D01*
X150450273Y-109726320D01*
X150215241Y-109883363D01*
X150015363Y-110083241D01*
X149858320Y-110318273D01*
X149750147Y-110579426D01*
X149695000Y-110856665D01*
X142405000Y-110856665D01*
X142349853Y-110579426D01*
X142241680Y-110318273D01*
X142084637Y-110083241D01*
X141884759Y-109883363D01*
X141649727Y-109726320D01*
X141388574Y-109618147D01*
X141111335Y-109563000D01*
X140828665Y-109563000D01*
X140551426Y-109618147D01*
X140290273Y-109726320D01*
X140055241Y-109883363D01*
X139855363Y-110083241D01*
X139698320Y-110318273D01*
X139590147Y-110579426D01*
X139535000Y-110856665D01*
X118445103Y-110856665D01*
X118381494Y-110804463D01*
X118271180Y-110745498D01*
X118151482Y-110709188D01*
X118027000Y-110696928D01*
X117887750Y-110700000D01*
X117729000Y-110858750D01*
X117475000Y-110858750D01*
X117316250Y-110700000D01*
X117177000Y-110696928D01*
X117052518Y-110709188D01*
X116932820Y-110745498D01*
X116822506Y-110804463D01*
X116725815Y-110883815D01*
X116646463Y-110980506D01*
X116587498Y-111090820D01*
X116551188Y-111210518D01*
X116538928Y-111335000D01*
X112660000Y-111335000D01*
X112660000Y-109332665D01*
X156807000Y-109332665D01*
X156807000Y-109615335D01*
X156862147Y-109892574D01*
X156970320Y-110153727D01*
X157127363Y-110388759D01*
X157327241Y-110588637D01*
X157562273Y-110745680D01*
X157823426Y-110853853D01*
X158100665Y-110909000D01*
X158383335Y-110909000D01*
X158660574Y-110853853D01*
X158921727Y-110745680D01*
X159156759Y-110588637D01*
X159172396Y-110573000D01*
X169116928Y-110573000D01*
X169116928Y-111423000D01*
X169129188Y-111547482D01*
X169165498Y-111667180D01*
X169224463Y-111777494D01*
X169303815Y-111874185D01*
X169400506Y-111953537D01*
X169510820Y-112012502D01*
X169630518Y-112048812D01*
X169755000Y-112061072D01*
X170605000Y-112061072D01*
X170729482Y-112048812D01*
X170732580Y-112047872D01*
X176327000Y-112047872D01*
X176327000Y-112488128D01*
X176412890Y-112919925D01*
X176581369Y-113326669D01*
X176825962Y-113692729D01*
X177137271Y-114004038D01*
X177503331Y-114248631D01*
X177910075Y-114417110D01*
X178341872Y-114503000D01*
X178782128Y-114503000D01*
X179213925Y-114417110D01*
X179620669Y-114248631D01*
X179986729Y-114004038D01*
X180298038Y-113692729D01*
X180542631Y-113326669D01*
X180711110Y-112919925D01*
X180797000Y-112488128D01*
X180797000Y-112047872D01*
X180711110Y-111616075D01*
X180542631Y-111209331D01*
X180298038Y-110843271D01*
X179986729Y-110531962D01*
X179620669Y-110287369D01*
X179213925Y-110118890D01*
X178782128Y-110033000D01*
X178341872Y-110033000D01*
X177910075Y-110118890D01*
X177503331Y-110287369D01*
X177137271Y-110531962D01*
X176825962Y-110843271D01*
X176581369Y-111209331D01*
X176412890Y-111616075D01*
X176327000Y-112047872D01*
X170732580Y-112047872D01*
X170849180Y-112012502D01*
X170959494Y-111953537D01*
X171056185Y-111874185D01*
X171135537Y-111777494D01*
X171194502Y-111667180D01*
X171230812Y-111547482D01*
X171243072Y-111423000D01*
X171243072Y-110573000D01*
X171230812Y-110448518D01*
X171194502Y-110328820D01*
X171135537Y-110218506D01*
X171056185Y-110121815D01*
X170959494Y-110042463D01*
X170849180Y-109983498D01*
X170729482Y-109947188D01*
X170605000Y-109934928D01*
X169755000Y-109934928D01*
X169630518Y-109947188D01*
X169510820Y-109983498D01*
X169400506Y-110042463D01*
X169303815Y-110121815D01*
X169224463Y-110218506D01*
X169165498Y-110328820D01*
X169129188Y-110448518D01*
X169116928Y-110573000D01*
X159172396Y-110573000D01*
X159356637Y-110388759D01*
X159513680Y-110153727D01*
X159621853Y-109892574D01*
X159677000Y-109615335D01*
X159677000Y-109332665D01*
X159621853Y-109055426D01*
X159513680Y-108794273D01*
X159356637Y-108559241D01*
X159156759Y-108359363D01*
X158921727Y-108202320D01*
X158660574Y-108094147D01*
X158502306Y-108062665D01*
X162427000Y-108062665D01*
X162427000Y-108345335D01*
X162482147Y-108622574D01*
X162590320Y-108883727D01*
X162747363Y-109118759D01*
X162947241Y-109318637D01*
X163182273Y-109475680D01*
X163443426Y-109583853D01*
X163720665Y-109639000D01*
X164003335Y-109639000D01*
X164280574Y-109583853D01*
X164541727Y-109475680D01*
X164597210Y-109438607D01*
X164610815Y-109455185D01*
X164707506Y-109534537D01*
X164817820Y-109593502D01*
X164937518Y-109629812D01*
X165062000Y-109642072D01*
X166662000Y-109642072D01*
X166786482Y-109629812D01*
X166906180Y-109593502D01*
X167016494Y-109534537D01*
X167113185Y-109455185D01*
X167192537Y-109358494D01*
X167251502Y-109248180D01*
X167287812Y-109128482D01*
X167300072Y-109004000D01*
X167300072Y-107850000D01*
X168511928Y-107850000D01*
X168524188Y-107974482D01*
X168560498Y-108094180D01*
X168619463Y-108204494D01*
X168698815Y-108301185D01*
X168795506Y-108380537D01*
X168905820Y-108439502D01*
X169025518Y-108475812D01*
X169150000Y-108488072D01*
X169714250Y-108485000D01*
X169873000Y-108326250D01*
X169873000Y-107127000D01*
X170127000Y-107127000D01*
X170127000Y-108326250D01*
X170285750Y-108485000D01*
X170850000Y-108488072D01*
X170974482Y-108475812D01*
X171094180Y-108439502D01*
X171204494Y-108380537D01*
X171301185Y-108301185D01*
X171380537Y-108204494D01*
X171439502Y-108094180D01*
X171475812Y-107974482D01*
X171488072Y-107850000D01*
X171485000Y-107285750D01*
X171326250Y-107127000D01*
X170127000Y-107127000D01*
X169873000Y-107127000D01*
X168673750Y-107127000D01*
X168515000Y-107285750D01*
X168511928Y-107850000D01*
X167300072Y-107850000D01*
X167300072Y-107404000D01*
X167287812Y-107279518D01*
X167251502Y-107159820D01*
X167192537Y-107049506D01*
X167113185Y-106952815D01*
X167016494Y-106873463D01*
X166906180Y-106814498D01*
X166786482Y-106778188D01*
X166662000Y-106765928D01*
X165062000Y-106765928D01*
X164937518Y-106778188D01*
X164817820Y-106814498D01*
X164707506Y-106873463D01*
X164610815Y-106952815D01*
X164597210Y-106969393D01*
X164541727Y-106932320D01*
X164280574Y-106824147D01*
X164003335Y-106769000D01*
X163720665Y-106769000D01*
X163443426Y-106824147D01*
X163182273Y-106932320D01*
X162947241Y-107089363D01*
X162747363Y-107289241D01*
X162590320Y-107524273D01*
X162482147Y-107785426D01*
X162427000Y-108062665D01*
X158502306Y-108062665D01*
X158383335Y-108039000D01*
X158100665Y-108039000D01*
X157823426Y-108094147D01*
X157562273Y-108202320D01*
X157327241Y-108359363D01*
X157127363Y-108559241D01*
X156970320Y-108794273D01*
X156862147Y-109055426D01*
X156807000Y-109332665D01*
X112660000Y-109332665D01*
X112660000Y-107867000D01*
X116538928Y-107867000D01*
X116551188Y-107991482D01*
X116587498Y-108111180D01*
X116646463Y-108221494D01*
X116725815Y-108318185D01*
X116822506Y-108397537D01*
X116932820Y-108456502D01*
X117052518Y-108492812D01*
X117177000Y-108505072D01*
X117316250Y-108502000D01*
X117475000Y-108343250D01*
X117475000Y-107569000D01*
X117729000Y-107569000D01*
X117729000Y-108343250D01*
X117887750Y-108502000D01*
X118027000Y-108505072D01*
X118151482Y-108492812D01*
X118271180Y-108456502D01*
X118381494Y-108397537D01*
X118478185Y-108318185D01*
X118557537Y-108221494D01*
X118616502Y-108111180D01*
X118652812Y-107991482D01*
X118665072Y-107867000D01*
X118662000Y-107727750D01*
X118503250Y-107569000D01*
X117729000Y-107569000D01*
X117475000Y-107569000D01*
X116700750Y-107569000D01*
X116542000Y-107727750D01*
X116538928Y-107867000D01*
X112660000Y-107867000D01*
X112660000Y-107017000D01*
X116538928Y-107017000D01*
X116542000Y-107156250D01*
X116700750Y-107315000D01*
X117475000Y-107315000D01*
X117475000Y-106540750D01*
X117729000Y-106540750D01*
X117729000Y-107315000D01*
X118503250Y-107315000D01*
X118662000Y-107156250D01*
X118665072Y-107017000D01*
X118652812Y-106892518D01*
X118616502Y-106772820D01*
X118557537Y-106662506D01*
X118478185Y-106565815D01*
X118381494Y-106486463D01*
X118271180Y-106427498D01*
X118151482Y-106391188D01*
X118027000Y-106378928D01*
X117887750Y-106382000D01*
X117729000Y-106540750D01*
X117475000Y-106540750D01*
X117316250Y-106382000D01*
X117177000Y-106378928D01*
X117052518Y-106391188D01*
X116932820Y-106427498D01*
X116822506Y-106486463D01*
X116725815Y-106565815D01*
X116646463Y-106662506D01*
X116587498Y-106772820D01*
X116551188Y-106892518D01*
X116538928Y-107017000D01*
X112660000Y-107017000D01*
X112660000Y-105880000D01*
X130641928Y-105880000D01*
X130641928Y-107480000D01*
X130654188Y-107604482D01*
X130690498Y-107724180D01*
X130749463Y-107834494D01*
X130828815Y-107931185D01*
X130925506Y-108010537D01*
X131035820Y-108069502D01*
X131155518Y-108105812D01*
X131280000Y-108118072D01*
X132880000Y-108118072D01*
X133004482Y-108105812D01*
X133124180Y-108069502D01*
X133234494Y-108010537D01*
X133331185Y-107931185D01*
X133344790Y-107914607D01*
X133400273Y-107951680D01*
X133661426Y-108059853D01*
X133938665Y-108115000D01*
X134221335Y-108115000D01*
X134498574Y-108059853D01*
X134759727Y-107951680D01*
X134994759Y-107794637D01*
X135194637Y-107594759D01*
X135351680Y-107359727D01*
X135459853Y-107098574D01*
X135515000Y-106821335D01*
X135515000Y-106538665D01*
X135459853Y-106261426D01*
X135413699Y-106150000D01*
X168511928Y-106150000D01*
X168515000Y-106714250D01*
X168673750Y-106873000D01*
X169873000Y-106873000D01*
X169873000Y-106853000D01*
X170127000Y-106853000D01*
X170127000Y-106873000D01*
X171326250Y-106873000D01*
X171485000Y-106714250D01*
X171488072Y-106150000D01*
X171475812Y-106025518D01*
X171439502Y-105905820D01*
X171380537Y-105795506D01*
X171301185Y-105698815D01*
X171204494Y-105619463D01*
X171094180Y-105560498D01*
X171021620Y-105538487D01*
X171153475Y-105406632D01*
X171315990Y-105163411D01*
X171427932Y-104893158D01*
X171485000Y-104606260D01*
X171485000Y-104313740D01*
X171427932Y-104026842D01*
X171315990Y-103756589D01*
X171153475Y-103513368D01*
X170946632Y-103306525D01*
X170772240Y-103190000D01*
X170946632Y-103073475D01*
X171153475Y-102866632D01*
X171315990Y-102623411D01*
X171427932Y-102353158D01*
X171485000Y-102066260D01*
X171485000Y-101773740D01*
X171427932Y-101486842D01*
X171315990Y-101216589D01*
X171153475Y-100973368D01*
X170946632Y-100766525D01*
X170703411Y-100604010D01*
X170433158Y-100492068D01*
X170146260Y-100435000D01*
X169853740Y-100435000D01*
X169566842Y-100492068D01*
X169296589Y-100604010D01*
X169053368Y-100766525D01*
X168846525Y-100973368D01*
X168684010Y-101216589D01*
X168572068Y-101486842D01*
X168515000Y-101773740D01*
X168515000Y-102066260D01*
X168572068Y-102353158D01*
X168684010Y-102623411D01*
X168846525Y-102866632D01*
X169053368Y-103073475D01*
X169227760Y-103190000D01*
X169053368Y-103306525D01*
X168846525Y-103513368D01*
X168684010Y-103756589D01*
X168572068Y-104026842D01*
X168515000Y-104313740D01*
X168515000Y-104606260D01*
X168572068Y-104893158D01*
X168684010Y-105163411D01*
X168846525Y-105406632D01*
X168978380Y-105538487D01*
X168905820Y-105560498D01*
X168795506Y-105619463D01*
X168698815Y-105698815D01*
X168619463Y-105795506D01*
X168560498Y-105905820D01*
X168524188Y-106025518D01*
X168511928Y-106150000D01*
X135413699Y-106150000D01*
X135351680Y-106000273D01*
X135194637Y-105765241D01*
X134994759Y-105565363D01*
X134759727Y-105408320D01*
X134498574Y-105300147D01*
X134221335Y-105245000D01*
X133938665Y-105245000D01*
X133661426Y-105300147D01*
X133400273Y-105408320D01*
X133344790Y-105445393D01*
X133331185Y-105428815D01*
X133234494Y-105349463D01*
X133124180Y-105290498D01*
X133004482Y-105254188D01*
X132880000Y-105241928D01*
X131280000Y-105241928D01*
X131155518Y-105254188D01*
X131035820Y-105290498D01*
X130925506Y-105349463D01*
X130828815Y-105428815D01*
X130749463Y-105525506D01*
X130690498Y-105635820D01*
X130654188Y-105755518D01*
X130641928Y-105880000D01*
X112660000Y-105880000D01*
X112660000Y-103207000D01*
X116538928Y-103207000D01*
X116538928Y-104057000D01*
X116551188Y-104181482D01*
X116587498Y-104301180D01*
X116646463Y-104411494D01*
X116725815Y-104508185D01*
X116822506Y-104587537D01*
X116932820Y-104646502D01*
X117052518Y-104682812D01*
X117177000Y-104695072D01*
X118027000Y-104695072D01*
X118151482Y-104682812D01*
X118271180Y-104646502D01*
X118381494Y-104587537D01*
X118478185Y-104508185D01*
X118557537Y-104411494D01*
X118616502Y-104301180D01*
X118652812Y-104181482D01*
X118665072Y-104057000D01*
X118665072Y-103236665D01*
X139535000Y-103236665D01*
X139535000Y-103519335D01*
X139590147Y-103796574D01*
X139698320Y-104057727D01*
X139855363Y-104292759D01*
X140055241Y-104492637D01*
X140290273Y-104649680D01*
X140551426Y-104757853D01*
X140828665Y-104813000D01*
X141111335Y-104813000D01*
X141388574Y-104757853D01*
X141649727Y-104649680D01*
X141884759Y-104492637D01*
X142084637Y-104292759D01*
X142241680Y-104057727D01*
X142349853Y-103796574D01*
X142405000Y-103519335D01*
X142405000Y-103236665D01*
X149695000Y-103236665D01*
X149695000Y-103519335D01*
X149750147Y-103796574D01*
X149858320Y-104057727D01*
X150015363Y-104292759D01*
X150215241Y-104492637D01*
X150450273Y-104649680D01*
X150711426Y-104757853D01*
X150988665Y-104813000D01*
X151271335Y-104813000D01*
X151548574Y-104757853D01*
X151809727Y-104649680D01*
X152044759Y-104492637D01*
X152204731Y-104332665D01*
X156807000Y-104332665D01*
X156807000Y-104615335D01*
X156862147Y-104892574D01*
X156970320Y-105153727D01*
X157127363Y-105388759D01*
X157327241Y-105588637D01*
X157562273Y-105745680D01*
X157823426Y-105853853D01*
X158100665Y-105909000D01*
X158383335Y-105909000D01*
X158660574Y-105853853D01*
X158921727Y-105745680D01*
X159156759Y-105588637D01*
X159356637Y-105388759D01*
X159513680Y-105153727D01*
X159621853Y-104892574D01*
X159677000Y-104615335D01*
X159677000Y-104332665D01*
X159621853Y-104055426D01*
X159513680Y-103794273D01*
X159356637Y-103559241D01*
X159156759Y-103359363D01*
X158921727Y-103202320D01*
X158660574Y-103094147D01*
X158383335Y-103039000D01*
X158100665Y-103039000D01*
X157823426Y-103094147D01*
X157562273Y-103202320D01*
X157327241Y-103359363D01*
X157127363Y-103559241D01*
X156970320Y-103794273D01*
X156862147Y-104055426D01*
X156807000Y-104332665D01*
X152204731Y-104332665D01*
X152244637Y-104292759D01*
X152401680Y-104057727D01*
X152509853Y-103796574D01*
X152565000Y-103519335D01*
X152565000Y-103236665D01*
X152509853Y-102959426D01*
X152401680Y-102698273D01*
X152244637Y-102463241D01*
X152044759Y-102263363D01*
X151809727Y-102106320D01*
X151548574Y-101998147D01*
X151271335Y-101943000D01*
X150988665Y-101943000D01*
X150711426Y-101998147D01*
X150450273Y-102106320D01*
X150215241Y-102263363D01*
X150015363Y-102463241D01*
X149858320Y-102698273D01*
X149750147Y-102959426D01*
X149695000Y-103236665D01*
X142405000Y-103236665D01*
X142349853Y-102959426D01*
X142241680Y-102698273D01*
X142084637Y-102463241D01*
X141884759Y-102263363D01*
X141649727Y-102106320D01*
X141388574Y-101998147D01*
X141111335Y-101943000D01*
X140828665Y-101943000D01*
X140551426Y-101998147D01*
X140290273Y-102106320D01*
X140055241Y-102263363D01*
X139855363Y-102463241D01*
X139698320Y-102698273D01*
X139590147Y-102959426D01*
X139535000Y-103236665D01*
X118665072Y-103236665D01*
X118665072Y-103207000D01*
X118652812Y-103082518D01*
X118616502Y-102962820D01*
X118557537Y-102852506D01*
X118478185Y-102755815D01*
X118381494Y-102676463D01*
X118271180Y-102617498D01*
X118151482Y-102581188D01*
X118027000Y-102568928D01*
X117177000Y-102568928D01*
X117052518Y-102581188D01*
X116932820Y-102617498D01*
X116822506Y-102676463D01*
X116725815Y-102755815D01*
X116646463Y-102852506D01*
X116587498Y-102962820D01*
X116551188Y-103082518D01*
X116538928Y-103207000D01*
X112660000Y-103207000D01*
X112660000Y-100858665D01*
X128105000Y-100858665D01*
X128105000Y-101141335D01*
X128160147Y-101418574D01*
X128268320Y-101679727D01*
X128425363Y-101914759D01*
X128625241Y-102114637D01*
X128860273Y-102271680D01*
X129121426Y-102379853D01*
X129398665Y-102435000D01*
X129681335Y-102435000D01*
X129958574Y-102379853D01*
X130219727Y-102271680D01*
X130454759Y-102114637D01*
X130654637Y-101914759D01*
X130811680Y-101679727D01*
X130919853Y-101418574D01*
X130975000Y-101141335D01*
X130975000Y-100858665D01*
X135725000Y-100858665D01*
X135725000Y-101141335D01*
X135780147Y-101418574D01*
X135888320Y-101679727D01*
X136045363Y-101914759D01*
X136245241Y-102114637D01*
X136480273Y-102271680D01*
X136741426Y-102379853D01*
X137018665Y-102435000D01*
X137301335Y-102435000D01*
X137578574Y-102379853D01*
X137839727Y-102271680D01*
X138074759Y-102114637D01*
X138274637Y-101914759D01*
X138431680Y-101679727D01*
X138539853Y-101418574D01*
X138595000Y-101141335D01*
X138595000Y-100858665D01*
X138539853Y-100581426D01*
X138431680Y-100320273D01*
X138274637Y-100085241D01*
X138074759Y-99885363D01*
X137839727Y-99728320D01*
X137578574Y-99620147D01*
X137301335Y-99565000D01*
X137018665Y-99565000D01*
X136741426Y-99620147D01*
X136480273Y-99728320D01*
X136245241Y-99885363D01*
X136045363Y-100085241D01*
X135888320Y-100320273D01*
X135780147Y-100581426D01*
X135725000Y-100858665D01*
X130975000Y-100858665D01*
X130919853Y-100581426D01*
X130811680Y-100320273D01*
X130654637Y-100085241D01*
X130454759Y-99885363D01*
X130219727Y-99728320D01*
X129958574Y-99620147D01*
X129681335Y-99565000D01*
X129398665Y-99565000D01*
X129121426Y-99620147D01*
X128860273Y-99728320D01*
X128625241Y-99885363D01*
X128425363Y-100085241D01*
X128268320Y-100320273D01*
X128160147Y-100581426D01*
X128105000Y-100858665D01*
X112660000Y-100858665D01*
X112660000Y-94571000D01*
X116538928Y-94571000D01*
X116538928Y-95421000D01*
X116551188Y-95545482D01*
X116587498Y-95665180D01*
X116646463Y-95775494D01*
X116725815Y-95872185D01*
X116822506Y-95951537D01*
X116932820Y-96010502D01*
X117052518Y-96046812D01*
X117177000Y-96059072D01*
X118027000Y-96059072D01*
X118151482Y-96046812D01*
X118271180Y-96010502D01*
X118381494Y-95951537D01*
X118478185Y-95872185D01*
X118557537Y-95775494D01*
X118616502Y-95665180D01*
X118652812Y-95545482D01*
X118665072Y-95421000D01*
X118665072Y-94858665D01*
X128359000Y-94858665D01*
X128359000Y-95141335D01*
X128414147Y-95418574D01*
X128522320Y-95679727D01*
X128679363Y-95914759D01*
X128879241Y-96114637D01*
X129114273Y-96271680D01*
X129375426Y-96379853D01*
X129652665Y-96435000D01*
X129935335Y-96435000D01*
X130212574Y-96379853D01*
X130473727Y-96271680D01*
X130708759Y-96114637D01*
X130908637Y-95914759D01*
X131065680Y-95679727D01*
X131173853Y-95418574D01*
X131229000Y-95141335D01*
X131229000Y-94858665D01*
X135979000Y-94858665D01*
X135979000Y-95141335D01*
X136034147Y-95418574D01*
X136142320Y-95679727D01*
X136299363Y-95914759D01*
X136499241Y-96114637D01*
X136734273Y-96271680D01*
X136995426Y-96379853D01*
X137272665Y-96435000D01*
X137555335Y-96435000D01*
X137832574Y-96379853D01*
X138093727Y-96271680D01*
X138328759Y-96114637D01*
X138528637Y-95914759D01*
X138685680Y-95679727D01*
X138793853Y-95418574D01*
X138849000Y-95141335D01*
X138849000Y-94858665D01*
X138793853Y-94581426D01*
X138685680Y-94320273D01*
X138528637Y-94085241D01*
X138328759Y-93885363D01*
X138093727Y-93728320D01*
X137832574Y-93620147D01*
X137555335Y-93565000D01*
X137272665Y-93565000D01*
X136995426Y-93620147D01*
X136734273Y-93728320D01*
X136499241Y-93885363D01*
X136299363Y-94085241D01*
X136142320Y-94320273D01*
X136034147Y-94581426D01*
X135979000Y-94858665D01*
X131229000Y-94858665D01*
X131173853Y-94581426D01*
X131065680Y-94320273D01*
X130908637Y-94085241D01*
X130708759Y-93885363D01*
X130473727Y-93728320D01*
X130212574Y-93620147D01*
X129935335Y-93565000D01*
X129652665Y-93565000D01*
X129375426Y-93620147D01*
X129114273Y-93728320D01*
X128879241Y-93885363D01*
X128679363Y-94085241D01*
X128522320Y-94320273D01*
X128414147Y-94581426D01*
X128359000Y-94858665D01*
X118665072Y-94858665D01*
X118665072Y-94571000D01*
X118652812Y-94446518D01*
X118616502Y-94326820D01*
X118557537Y-94216506D01*
X118478185Y-94119815D01*
X118381494Y-94040463D01*
X118271180Y-93981498D01*
X118151482Y-93945188D01*
X118027000Y-93932928D01*
X117177000Y-93932928D01*
X117052518Y-93945188D01*
X116932820Y-93981498D01*
X116822506Y-94040463D01*
X116725815Y-94119815D01*
X116646463Y-94216506D01*
X116587498Y-94326820D01*
X116551188Y-94446518D01*
X116538928Y-94571000D01*
X112660000Y-94571000D01*
X112660000Y-92238665D01*
X140945000Y-92238665D01*
X140945000Y-92521335D01*
X141000147Y-92798574D01*
X141108320Y-93059727D01*
X141265363Y-93294759D01*
X141465241Y-93494637D01*
X141697759Y-93650000D01*
X141465241Y-93805363D01*
X141265363Y-94005241D01*
X141108320Y-94240273D01*
X141000147Y-94501426D01*
X140945000Y-94778665D01*
X140945000Y-95061335D01*
X141000147Y-95338574D01*
X141108320Y-95599727D01*
X141265363Y-95834759D01*
X141465241Y-96034637D01*
X141697759Y-96190000D01*
X141465241Y-96345363D01*
X141265363Y-96545241D01*
X141108320Y-96780273D01*
X141000147Y-97041426D01*
X140945000Y-97318665D01*
X140945000Y-97601335D01*
X141000147Y-97878574D01*
X141108320Y-98139727D01*
X141265363Y-98374759D01*
X141465241Y-98574637D01*
X141697759Y-98730000D01*
X141465241Y-98885363D01*
X141265363Y-99085241D01*
X141108320Y-99320273D01*
X141000147Y-99581426D01*
X140945000Y-99858665D01*
X140945000Y-100141335D01*
X141000147Y-100418574D01*
X141108320Y-100679727D01*
X141265363Y-100914759D01*
X141465241Y-101114637D01*
X141700273Y-101271680D01*
X141961426Y-101379853D01*
X142238665Y-101435000D01*
X142521335Y-101435000D01*
X142798574Y-101379853D01*
X143059727Y-101271680D01*
X143294759Y-101114637D01*
X143494637Y-100914759D01*
X143651680Y-100679727D01*
X143759853Y-100418574D01*
X143815000Y-100141335D01*
X143815000Y-99858665D01*
X143759853Y-99581426D01*
X143651680Y-99320273D01*
X143571317Y-99200000D01*
X148561928Y-99200000D01*
X148561928Y-100800000D01*
X148574188Y-100924482D01*
X148610498Y-101044180D01*
X148669463Y-101154494D01*
X148748815Y-101251185D01*
X148845506Y-101330537D01*
X148955820Y-101389502D01*
X149075518Y-101425812D01*
X149200000Y-101438072D01*
X150800000Y-101438072D01*
X150924482Y-101425812D01*
X151044180Y-101389502D01*
X151154494Y-101330537D01*
X151251185Y-101251185D01*
X151289362Y-101204665D01*
X157569000Y-101204665D01*
X157569000Y-101487335D01*
X157624147Y-101764574D01*
X157732320Y-102025727D01*
X157889363Y-102260759D01*
X158089241Y-102460637D01*
X158324273Y-102617680D01*
X158585426Y-102725853D01*
X158862665Y-102781000D01*
X159145335Y-102781000D01*
X159422574Y-102725853D01*
X159683727Y-102617680D01*
X159918759Y-102460637D01*
X160118637Y-102260759D01*
X160275680Y-102025727D01*
X160383853Y-101764574D01*
X160439000Y-101487335D01*
X160439000Y-101204665D01*
X165189000Y-101204665D01*
X165189000Y-101487335D01*
X165244147Y-101764574D01*
X165352320Y-102025727D01*
X165509363Y-102260759D01*
X165709241Y-102460637D01*
X165944273Y-102617680D01*
X166205426Y-102725853D01*
X166482665Y-102781000D01*
X166765335Y-102781000D01*
X167042574Y-102725853D01*
X167303727Y-102617680D01*
X167538759Y-102460637D01*
X167738637Y-102260759D01*
X167895680Y-102025727D01*
X168003853Y-101764574D01*
X168059000Y-101487335D01*
X168059000Y-101204665D01*
X168003853Y-100927426D01*
X167895680Y-100666273D01*
X167738637Y-100431241D01*
X167538759Y-100231363D01*
X167303727Y-100074320D01*
X167042574Y-99966147D01*
X166765335Y-99911000D01*
X166482665Y-99911000D01*
X166205426Y-99966147D01*
X165944273Y-100074320D01*
X165709241Y-100231363D01*
X165509363Y-100431241D01*
X165352320Y-100666273D01*
X165244147Y-100927426D01*
X165189000Y-101204665D01*
X160439000Y-101204665D01*
X160383853Y-100927426D01*
X160275680Y-100666273D01*
X160118637Y-100431241D01*
X159918759Y-100231363D01*
X159683727Y-100074320D01*
X159422574Y-99966147D01*
X159145335Y-99911000D01*
X158862665Y-99911000D01*
X158585426Y-99966147D01*
X158324273Y-100074320D01*
X158089241Y-100231363D01*
X157889363Y-100431241D01*
X157732320Y-100666273D01*
X157624147Y-100927426D01*
X157569000Y-101204665D01*
X151289362Y-101204665D01*
X151330537Y-101154494D01*
X151389502Y-101044180D01*
X151425812Y-100924482D01*
X151438072Y-100800000D01*
X151438072Y-99200000D01*
X151425812Y-99075518D01*
X151389502Y-98955820D01*
X151330537Y-98845506D01*
X151251185Y-98748815D01*
X151154494Y-98669463D01*
X151044180Y-98610498D01*
X150924482Y-98574188D01*
X150916039Y-98573357D01*
X151114637Y-98374759D01*
X151271680Y-98139727D01*
X151377175Y-97885039D01*
X157612096Y-97885039D01*
X157652754Y-98019087D01*
X157772963Y-98273420D01*
X157940481Y-98499414D01*
X158148869Y-98688385D01*
X158390119Y-98833070D01*
X158654960Y-98927909D01*
X158877000Y-98806624D01*
X158877000Y-97663000D01*
X159131000Y-97663000D01*
X159131000Y-98806624D01*
X159353040Y-98927909D01*
X159617881Y-98833070D01*
X159859131Y-98688385D01*
X160067519Y-98499414D01*
X160235037Y-98273420D01*
X160355246Y-98019087D01*
X160395904Y-97885039D01*
X160273915Y-97663000D01*
X159131000Y-97663000D01*
X158877000Y-97663000D01*
X157734085Y-97663000D01*
X157612096Y-97885039D01*
X151377175Y-97885039D01*
X151379853Y-97878574D01*
X151435000Y-97601335D01*
X151435000Y-97318665D01*
X151408803Y-97186961D01*
X157612096Y-97186961D01*
X157734085Y-97409000D01*
X158877000Y-97409000D01*
X158877000Y-96265376D01*
X159131000Y-96265376D01*
X159131000Y-97409000D01*
X160273915Y-97409000D01*
X160281790Y-97394665D01*
X165189000Y-97394665D01*
X165189000Y-97677335D01*
X165244147Y-97954574D01*
X165352320Y-98215727D01*
X165509363Y-98450759D01*
X165709241Y-98650637D01*
X165944273Y-98807680D01*
X166205426Y-98915853D01*
X166482665Y-98971000D01*
X166765335Y-98971000D01*
X167042574Y-98915853D01*
X167303727Y-98807680D01*
X167538759Y-98650637D01*
X167738637Y-98450759D01*
X167895680Y-98215727D01*
X168003853Y-97954574D01*
X168059000Y-97677335D01*
X168059000Y-97394665D01*
X168003853Y-97117426D01*
X167895680Y-96856273D01*
X167738637Y-96621241D01*
X167538759Y-96421363D01*
X167303727Y-96264320D01*
X167042574Y-96156147D01*
X166765335Y-96101000D01*
X166482665Y-96101000D01*
X166205426Y-96156147D01*
X165944273Y-96264320D01*
X165709241Y-96421363D01*
X165509363Y-96621241D01*
X165352320Y-96856273D01*
X165244147Y-97117426D01*
X165189000Y-97394665D01*
X160281790Y-97394665D01*
X160395904Y-97186961D01*
X160355246Y-97052913D01*
X160235037Y-96798580D01*
X160067519Y-96572586D01*
X159859131Y-96383615D01*
X159617881Y-96238930D01*
X159353040Y-96144091D01*
X159131000Y-96265376D01*
X158877000Y-96265376D01*
X158654960Y-96144091D01*
X158390119Y-96238930D01*
X158148869Y-96383615D01*
X157940481Y-96572586D01*
X157772963Y-96798580D01*
X157652754Y-97052913D01*
X157612096Y-97186961D01*
X151408803Y-97186961D01*
X151379853Y-97041426D01*
X151271680Y-96780273D01*
X151114637Y-96545241D01*
X150914759Y-96345363D01*
X150682241Y-96190000D01*
X150914759Y-96034637D01*
X151078731Y-95870665D01*
X168745000Y-95870665D01*
X168745000Y-96153335D01*
X168800147Y-96430574D01*
X168908320Y-96691727D01*
X169065363Y-96926759D01*
X169265241Y-97126637D01*
X169500273Y-97283680D01*
X169761426Y-97391853D01*
X170038665Y-97447000D01*
X170321335Y-97447000D01*
X170598574Y-97391853D01*
X170859727Y-97283680D01*
X171094759Y-97126637D01*
X171294637Y-96926759D01*
X171451680Y-96691727D01*
X171559853Y-96430574D01*
X171615000Y-96153335D01*
X171615000Y-95870665D01*
X171559853Y-95593426D01*
X171451680Y-95332273D01*
X171294637Y-95097241D01*
X171094759Y-94897363D01*
X170859727Y-94740320D01*
X170598574Y-94632147D01*
X170321335Y-94577000D01*
X170038665Y-94577000D01*
X169761426Y-94632147D01*
X169500273Y-94740320D01*
X169265241Y-94897363D01*
X169065363Y-95097241D01*
X168908320Y-95332273D01*
X168800147Y-95593426D01*
X168745000Y-95870665D01*
X151078731Y-95870665D01*
X151114637Y-95834759D01*
X151271680Y-95599727D01*
X151379853Y-95338574D01*
X151435000Y-95061335D01*
X151435000Y-94778665D01*
X151379853Y-94501426D01*
X151271680Y-94240273D01*
X151114637Y-94005241D01*
X150914759Y-93805363D01*
X150679727Y-93648320D01*
X150669135Y-93643933D01*
X150855131Y-93532385D01*
X151063519Y-93343414D01*
X151231037Y-93117420D01*
X151351246Y-92863087D01*
X151351969Y-92860702D01*
X155650903Y-92860702D01*
X155722486Y-93104671D01*
X155977996Y-93225571D01*
X156252184Y-93294300D01*
X156534512Y-93308217D01*
X156814130Y-93266787D01*
X157080292Y-93171603D01*
X157205514Y-93104671D01*
X157277097Y-92860702D01*
X156464000Y-92047605D01*
X155650903Y-92860702D01*
X151351969Y-92860702D01*
X151391904Y-92729039D01*
X151269915Y-92507000D01*
X150127000Y-92507000D01*
X150127000Y-92527000D01*
X149873000Y-92527000D01*
X149873000Y-92507000D01*
X148730085Y-92507000D01*
X148608096Y-92729039D01*
X148648754Y-92863087D01*
X148768963Y-93117420D01*
X148936481Y-93343414D01*
X149144869Y-93532385D01*
X149330865Y-93643933D01*
X149320273Y-93648320D01*
X149085241Y-93805363D01*
X148885363Y-94005241D01*
X148728320Y-94240273D01*
X148620147Y-94501426D01*
X148565000Y-94778665D01*
X148565000Y-95061335D01*
X148620147Y-95338574D01*
X148728320Y-95599727D01*
X148885363Y-95834759D01*
X149085241Y-96034637D01*
X149317759Y-96190000D01*
X149085241Y-96345363D01*
X148885363Y-96545241D01*
X148728320Y-96780273D01*
X148620147Y-97041426D01*
X148565000Y-97318665D01*
X148565000Y-97601335D01*
X148620147Y-97878574D01*
X148728320Y-98139727D01*
X148885363Y-98374759D01*
X149083961Y-98573357D01*
X149075518Y-98574188D01*
X148955820Y-98610498D01*
X148845506Y-98669463D01*
X148748815Y-98748815D01*
X148669463Y-98845506D01*
X148610498Y-98955820D01*
X148574188Y-99075518D01*
X148561928Y-99200000D01*
X143571317Y-99200000D01*
X143494637Y-99085241D01*
X143294759Y-98885363D01*
X143062241Y-98730000D01*
X143294759Y-98574637D01*
X143494637Y-98374759D01*
X143651680Y-98139727D01*
X143759853Y-97878574D01*
X143815000Y-97601335D01*
X143815000Y-97318665D01*
X143759853Y-97041426D01*
X143651680Y-96780273D01*
X143494637Y-96545241D01*
X143294759Y-96345363D01*
X143062241Y-96190000D01*
X143294759Y-96034637D01*
X143494637Y-95834759D01*
X143651680Y-95599727D01*
X143759853Y-95338574D01*
X143815000Y-95061335D01*
X143815000Y-94778665D01*
X143759853Y-94501426D01*
X143651680Y-94240273D01*
X143494637Y-94005241D01*
X143294759Y-93805363D01*
X143062241Y-93650000D01*
X143294759Y-93494637D01*
X143494637Y-93294759D01*
X143651680Y-93059727D01*
X143759853Y-92798574D01*
X143815000Y-92521335D01*
X143815000Y-92238665D01*
X143773685Y-92030961D01*
X148608096Y-92030961D01*
X148730085Y-92253000D01*
X149873000Y-92253000D01*
X149873000Y-91109376D01*
X150127000Y-91109376D01*
X150127000Y-92253000D01*
X151269915Y-92253000D01*
X151391904Y-92030961D01*
X151363864Y-91938512D01*
X155023783Y-91938512D01*
X155065213Y-92218130D01*
X155160397Y-92484292D01*
X155227329Y-92609514D01*
X155471298Y-92681097D01*
X156284395Y-91868000D01*
X156643605Y-91868000D01*
X157456702Y-92681097D01*
X157700671Y-92609514D01*
X157821571Y-92354004D01*
X157890300Y-92079816D01*
X157904217Y-91797488D01*
X157862787Y-91517870D01*
X157767603Y-91251708D01*
X157700671Y-91126486D01*
X157456702Y-91054903D01*
X156643605Y-91868000D01*
X156284395Y-91868000D01*
X155471298Y-91054903D01*
X155227329Y-91126486D01*
X155106429Y-91381996D01*
X155037700Y-91656184D01*
X155023783Y-91938512D01*
X151363864Y-91938512D01*
X151351246Y-91896913D01*
X151231037Y-91642580D01*
X151063519Y-91416586D01*
X150855131Y-91227615D01*
X150613881Y-91082930D01*
X150349040Y-90988091D01*
X150127000Y-91109376D01*
X149873000Y-91109376D01*
X149650960Y-90988091D01*
X149386119Y-91082930D01*
X149144869Y-91227615D01*
X148936481Y-91416586D01*
X148768963Y-91642580D01*
X148648754Y-91896913D01*
X148608096Y-92030961D01*
X143773685Y-92030961D01*
X143759853Y-91961426D01*
X143651680Y-91700273D01*
X143494637Y-91465241D01*
X143294759Y-91265363D01*
X143059727Y-91108320D01*
X142798574Y-91000147D01*
X142521335Y-90945000D01*
X142238665Y-90945000D01*
X141961426Y-91000147D01*
X141700273Y-91108320D01*
X141465241Y-91265363D01*
X141265363Y-91465241D01*
X141108320Y-91700273D01*
X141000147Y-91961426D01*
X140945000Y-92238665D01*
X112660000Y-92238665D01*
X112660000Y-89774665D01*
X129629000Y-89774665D01*
X129629000Y-90057335D01*
X129684147Y-90334574D01*
X129792320Y-90595727D01*
X129949363Y-90830759D01*
X130149241Y-91030637D01*
X130384273Y-91187680D01*
X130645426Y-91295853D01*
X130922665Y-91351000D01*
X131205335Y-91351000D01*
X131482574Y-91295853D01*
X131743727Y-91187680D01*
X131978759Y-91030637D01*
X132178637Y-90830759D01*
X132335680Y-90595727D01*
X132443853Y-90334574D01*
X132499000Y-90057335D01*
X132499000Y-89774665D01*
X134629000Y-89774665D01*
X134629000Y-90057335D01*
X134684147Y-90334574D01*
X134792320Y-90595727D01*
X134949363Y-90830759D01*
X135149241Y-91030637D01*
X135384273Y-91187680D01*
X135645426Y-91295853D01*
X135922665Y-91351000D01*
X136205335Y-91351000D01*
X136482574Y-91295853D01*
X136743727Y-91187680D01*
X136978759Y-91030637D01*
X137134098Y-90875298D01*
X155650903Y-90875298D01*
X156464000Y-91688395D01*
X157277097Y-90875298D01*
X157205514Y-90631329D01*
X156950004Y-90510429D01*
X156675816Y-90441700D01*
X156393488Y-90427783D01*
X156113870Y-90469213D01*
X155847708Y-90564397D01*
X155722486Y-90631329D01*
X155650903Y-90875298D01*
X137134098Y-90875298D01*
X137178637Y-90830759D01*
X137335680Y-90595727D01*
X137443853Y-90334574D01*
X137499000Y-90057335D01*
X137499000Y-89774665D01*
X137490616Y-89732512D01*
X162421783Y-89732512D01*
X162463213Y-90012130D01*
X162558397Y-90278292D01*
X162625329Y-90403514D01*
X162869298Y-90475097D01*
X163682395Y-89662000D01*
X162869298Y-88848903D01*
X162625329Y-88920486D01*
X162504429Y-89175996D01*
X162435700Y-89450184D01*
X162421783Y-89732512D01*
X137490616Y-89732512D01*
X137443853Y-89497426D01*
X137335680Y-89236273D01*
X137178637Y-89001241D01*
X136978759Y-88801363D01*
X136781110Y-88669298D01*
X163048903Y-88669298D01*
X163862000Y-89482395D01*
X163876143Y-89468253D01*
X164055748Y-89647858D01*
X164041605Y-89662000D01*
X164055748Y-89676143D01*
X163876143Y-89855748D01*
X163862000Y-89841605D01*
X163048903Y-90654702D01*
X163120486Y-90898671D01*
X163375996Y-91019571D01*
X163650184Y-91088300D01*
X163932512Y-91102217D01*
X164212130Y-91060787D01*
X164478292Y-90965603D01*
X164600309Y-90900384D01*
X164610815Y-90913185D01*
X164707506Y-90992537D01*
X164817820Y-91051502D01*
X164937518Y-91087812D01*
X165062000Y-91100072D01*
X166662000Y-91100072D01*
X166786482Y-91087812D01*
X166906180Y-91051502D01*
X167016494Y-90992537D01*
X167113185Y-90913185D01*
X167192537Y-90816494D01*
X167251502Y-90706180D01*
X167287812Y-90586482D01*
X167300072Y-90462000D01*
X167300072Y-88862000D01*
X167287812Y-88737518D01*
X167251502Y-88617820D01*
X167192537Y-88507506D01*
X167113185Y-88410815D01*
X167016494Y-88331463D01*
X166906180Y-88272498D01*
X166834207Y-88250665D01*
X168745000Y-88250665D01*
X168745000Y-88533335D01*
X168800147Y-88810574D01*
X168908320Y-89071727D01*
X169065363Y-89306759D01*
X169265241Y-89506637D01*
X169500273Y-89663680D01*
X169761426Y-89771853D01*
X170038665Y-89827000D01*
X170321335Y-89827000D01*
X170598574Y-89771853D01*
X170859727Y-89663680D01*
X171094759Y-89506637D01*
X171294637Y-89306759D01*
X171325612Y-89260401D01*
X174650400Y-89260401D01*
X174650400Y-89555599D01*
X174707990Y-89845125D01*
X174820958Y-90117853D01*
X174984961Y-90363302D01*
X175193698Y-90572039D01*
X175352281Y-90678000D01*
X175193698Y-90783961D01*
X174984961Y-90992698D01*
X174820958Y-91238147D01*
X174707990Y-91510875D01*
X174650400Y-91800401D01*
X174650400Y-92095599D01*
X174707990Y-92385125D01*
X174820958Y-92657853D01*
X174984961Y-92903302D01*
X175193698Y-93112039D01*
X175352281Y-93218000D01*
X175193698Y-93323961D01*
X174984961Y-93532698D01*
X174820958Y-93778147D01*
X174707990Y-94050875D01*
X174650400Y-94340401D01*
X174650400Y-94635599D01*
X174707990Y-94925125D01*
X174820958Y-95197853D01*
X174984961Y-95443302D01*
X175193698Y-95652039D01*
X175439147Y-95816042D01*
X175711875Y-95929010D01*
X176001401Y-95986600D01*
X176296599Y-95986600D01*
X176586125Y-95929010D01*
X176858853Y-95816042D01*
X177104302Y-95652039D01*
X177313039Y-95443302D01*
X177419000Y-95284719D01*
X177524961Y-95443302D01*
X177733698Y-95652039D01*
X177979147Y-95816042D01*
X178251875Y-95929010D01*
X178541401Y-95986600D01*
X178836599Y-95986600D01*
X179126125Y-95929010D01*
X179398853Y-95816042D01*
X179644302Y-95652039D01*
X179853039Y-95443302D01*
X180017042Y-95197853D01*
X180130010Y-94925125D01*
X180187600Y-94635599D01*
X180187600Y-94340401D01*
X180130010Y-94050875D01*
X180017042Y-93778147D01*
X179853039Y-93532698D01*
X179644302Y-93323961D01*
X179485719Y-93218000D01*
X179644302Y-93112039D01*
X179853039Y-92903302D01*
X180017042Y-92657853D01*
X180130010Y-92385125D01*
X180187600Y-92095599D01*
X180187600Y-91800401D01*
X180130010Y-91510875D01*
X180017042Y-91238147D01*
X179853039Y-90992698D01*
X179644302Y-90783961D01*
X179485719Y-90678000D01*
X179644302Y-90572039D01*
X179853039Y-90363302D01*
X180017042Y-90117853D01*
X180130010Y-89845125D01*
X180187600Y-89555599D01*
X180187600Y-89260401D01*
X180130010Y-88970875D01*
X180017042Y-88698147D01*
X179853039Y-88452698D01*
X179644302Y-88243961D01*
X179398853Y-88079958D01*
X179126125Y-87966990D01*
X178836599Y-87909400D01*
X178541401Y-87909400D01*
X178251875Y-87966990D01*
X177979147Y-88079958D01*
X177733698Y-88243961D01*
X177524961Y-88452698D01*
X177419000Y-88611281D01*
X177313039Y-88452698D01*
X177104302Y-88243961D01*
X176858853Y-88079958D01*
X176586125Y-87966990D01*
X176296599Y-87909400D01*
X176001401Y-87909400D01*
X175711875Y-87966990D01*
X175439147Y-88079958D01*
X175193698Y-88243961D01*
X174984961Y-88452698D01*
X174820958Y-88698147D01*
X174707990Y-88970875D01*
X174650400Y-89260401D01*
X171325612Y-89260401D01*
X171451680Y-89071727D01*
X171559853Y-88810574D01*
X171615000Y-88533335D01*
X171615000Y-88250665D01*
X171559853Y-87973426D01*
X171451680Y-87712273D01*
X171294637Y-87477241D01*
X171094759Y-87277363D01*
X170859727Y-87120320D01*
X170598574Y-87012147D01*
X170321335Y-86957000D01*
X170038665Y-86957000D01*
X169761426Y-87012147D01*
X169500273Y-87120320D01*
X169265241Y-87277363D01*
X169065363Y-87477241D01*
X168908320Y-87712273D01*
X168800147Y-87973426D01*
X168745000Y-88250665D01*
X166834207Y-88250665D01*
X166786482Y-88236188D01*
X166662000Y-88223928D01*
X165062000Y-88223928D01*
X164937518Y-88236188D01*
X164817820Y-88272498D01*
X164707506Y-88331463D01*
X164610815Y-88410815D01*
X164600193Y-88423758D01*
X164348004Y-88304429D01*
X164073816Y-88235700D01*
X163791488Y-88221783D01*
X163511870Y-88263213D01*
X163245708Y-88358397D01*
X163120486Y-88425329D01*
X163048903Y-88669298D01*
X136781110Y-88669298D01*
X136743727Y-88644320D01*
X136482574Y-88536147D01*
X136205335Y-88481000D01*
X135922665Y-88481000D01*
X135645426Y-88536147D01*
X135384273Y-88644320D01*
X135149241Y-88801363D01*
X134949363Y-89001241D01*
X134792320Y-89236273D01*
X134684147Y-89497426D01*
X134629000Y-89774665D01*
X132499000Y-89774665D01*
X132443853Y-89497426D01*
X132335680Y-89236273D01*
X132178637Y-89001241D01*
X131978759Y-88801363D01*
X131743727Y-88644320D01*
X131482574Y-88536147D01*
X131205335Y-88481000D01*
X130922665Y-88481000D01*
X130645426Y-88536147D01*
X130384273Y-88644320D01*
X130149241Y-88801363D01*
X129949363Y-89001241D01*
X129792320Y-89236273D01*
X129684147Y-89497426D01*
X129629000Y-89774665D01*
X112660000Y-89774665D01*
X112660000Y-86726665D01*
X155029000Y-86726665D01*
X155029000Y-87009335D01*
X155084147Y-87286574D01*
X155192320Y-87547727D01*
X155349363Y-87782759D01*
X155549241Y-87982637D01*
X155784273Y-88139680D01*
X156045426Y-88247853D01*
X156322665Y-88303000D01*
X156605335Y-88303000D01*
X156882574Y-88247853D01*
X157143727Y-88139680D01*
X157378759Y-87982637D01*
X157578637Y-87782759D01*
X157735680Y-87547727D01*
X157843853Y-87286574D01*
X157899000Y-87009335D01*
X157899000Y-86726665D01*
X157843853Y-86449426D01*
X157735680Y-86188273D01*
X157578637Y-85953241D01*
X157378759Y-85753363D01*
X157143727Y-85596320D01*
X156882574Y-85488147D01*
X156605335Y-85433000D01*
X156322665Y-85433000D01*
X156045426Y-85488147D01*
X155784273Y-85596320D01*
X155549241Y-85753363D01*
X155349363Y-85953241D01*
X155192320Y-86188273D01*
X155084147Y-86449426D01*
X155029000Y-86726665D01*
X112660000Y-86726665D01*
X112660000Y-84127000D01*
X176327000Y-84127000D01*
X176327000Y-84548128D01*
G37*
X176327000Y-84548128D02*
X176412890Y-84979925D01*
X176581369Y-85386669D01*
X176825962Y-85752729D01*
X177137271Y-86064038D01*
X177503331Y-86308631D01*
X177910075Y-86477110D01*
X178341872Y-86563000D01*
X178782128Y-86563000D01*
X179213925Y-86477110D01*
X179620669Y-86308631D01*
X179986729Y-86064038D01*
X180298038Y-85752729D01*
X180542631Y-85386669D01*
X180711110Y-84979925D01*
X180797000Y-84548128D01*
X180797000Y-84127000D01*
X181340000Y-84127000D01*
X181340001Y-115726618D01*
X178556236Y-118510384D01*
X178531052Y-118531052D01*
X178510386Y-118556234D01*
X178448575Y-118631550D01*
X178409335Y-118704964D01*
X178387290Y-118746208D01*
X178349550Y-118870618D01*
X178340000Y-118967582D01*
X178340000Y-118967591D01*
X178336808Y-119000000D01*
X178340000Y-119032409D01*
X178340001Y-120340000D01*
X112660000Y-120340000D01*
X112660000Y-117127872D01*
X124257000Y-117127872D01*
X124257000Y-117568128D01*
X124342890Y-117999925D01*
X124511369Y-118406669D01*
X124755962Y-118772729D01*
X125067271Y-119084038D01*
X125433331Y-119328631D01*
X125840075Y-119497110D01*
X126271872Y-119583000D01*
X126712128Y-119583000D01*
X127143925Y-119497110D01*
X127550669Y-119328631D01*
X127916729Y-119084038D01*
X128228038Y-118772729D01*
X128472631Y-118406669D01*
X128641110Y-117999925D01*
X128727000Y-117568128D01*
X128727000Y-117200401D01*
X138963400Y-117200401D01*
X138963400Y-117495599D01*
X139020990Y-117785125D01*
X139133958Y-118057853D01*
X139297961Y-118303302D01*
X139506698Y-118512039D01*
X139752147Y-118676042D01*
X140024875Y-118789010D01*
X140314401Y-118846600D01*
X140609599Y-118846600D01*
X140899125Y-118789010D01*
X141171853Y-118676042D01*
X141417302Y-118512039D01*
X141626039Y-118303302D01*
X141732000Y-118144719D01*
X141837961Y-118303302D01*
X142046698Y-118512039D01*
X142292147Y-118676042D01*
X142564875Y-118789010D01*
X142854401Y-118846600D01*
X143149599Y-118846600D01*
X143439125Y-118789010D01*
X143711853Y-118676042D01*
X143957302Y-118512039D01*
X144166039Y-118303302D01*
X144272000Y-118144719D01*
X144377961Y-118303302D01*
X144586698Y-118512039D01*
X144832147Y-118676042D01*
X145104875Y-118789010D01*
X145394401Y-118846600D01*
X145689599Y-118846600D01*
X145979125Y-118789010D01*
X146251853Y-118676042D01*
X146497302Y-118512039D01*
X146706039Y-118303302D01*
X146812000Y-118144719D01*
X146917961Y-118303302D01*
X147126698Y-118512039D01*
X147372147Y-118676042D01*
X147644875Y-118789010D01*
X147934401Y-118846600D01*
X148229599Y-118846600D01*
X148519125Y-118789010D01*
X148791853Y-118676042D01*
X149037302Y-118512039D01*
X149246039Y-118303302D01*
X149352000Y-118144719D01*
X149457961Y-118303302D01*
X149666698Y-118512039D01*
X149912147Y-118676042D01*
X150184875Y-118789010D01*
X150474401Y-118846600D01*
X150769599Y-118846600D01*
X151059125Y-118789010D01*
X151331853Y-118676042D01*
X151577302Y-118512039D01*
X151786039Y-118303302D01*
X151893692Y-118142187D01*
X152055146Y-118358293D01*
X152273512Y-118554817D01*
X152526022Y-118704964D01*
X152802973Y-118802963D01*
X153035000Y-118682464D01*
X153035000Y-117475000D01*
X153289000Y-117475000D01*
X153289000Y-118682464D01*
X153521027Y-118802963D01*
X153797978Y-118704964D01*
X154050488Y-118554817D01*
X154268854Y-118358293D01*
X154432000Y-118139922D01*
X154595146Y-118358293D01*
X154813512Y-118554817D01*
X155066022Y-118704964D01*
X155342973Y-118802963D01*
X155575000Y-118682464D01*
X155575000Y-117475000D01*
X153289000Y-117475000D01*
X153035000Y-117475000D01*
X153015000Y-117475000D01*
X153015000Y-117221000D01*
X153035000Y-117221000D01*
X153035000Y-116013536D01*
X153289000Y-116013536D01*
X153289000Y-117221000D01*
X155575000Y-117221000D01*
X155575000Y-116013536D01*
X155829000Y-116013536D01*
X155829000Y-117221000D01*
X155849000Y-117221000D01*
X155849000Y-117475000D01*
X155829000Y-117475000D01*
X155829000Y-118682464D01*
X156061027Y-118802963D01*
X156337978Y-118704964D01*
X156590488Y-118554817D01*
X156808854Y-118358293D01*
X156970308Y-118142187D01*
X157077961Y-118303302D01*
X157286698Y-118512039D01*
X157532147Y-118676042D01*
X157804875Y-118789010D01*
X158094401Y-118846600D01*
X158389599Y-118846600D01*
X158679125Y-118789010D01*
X158951853Y-118676042D01*
X159197302Y-118512039D01*
X159406039Y-118303302D01*
X159570042Y-118057853D01*
X159683010Y-117785125D01*
X159740600Y-117495599D01*
X159740600Y-117200401D01*
X161823400Y-117200401D01*
X161823400Y-117495599D01*
X161880990Y-117785125D01*
X161993958Y-118057853D01*
X162157961Y-118303302D01*
X162366698Y-118512039D01*
X162612147Y-118676042D01*
X162884875Y-118789010D01*
X163174401Y-118846600D01*
X163469599Y-118846600D01*
X163759125Y-118789010D01*
X164031853Y-118676042D01*
X164277302Y-118512039D01*
X164486039Y-118303302D01*
X164592000Y-118144719D01*
X164697961Y-118303302D01*
X164906698Y-118512039D01*
X165152147Y-118676042D01*
X165424875Y-118789010D01*
X165714401Y-118846600D01*
X166009599Y-118846600D01*
X166299125Y-118789010D01*
X166571853Y-118676042D01*
X166817302Y-118512039D01*
X167026039Y-118303302D01*
X167132000Y-118144719D01*
X167237961Y-118303302D01*
X167446698Y-118512039D01*
X167692147Y-118676042D01*
X167964875Y-118789010D01*
X168254401Y-118846600D01*
X168549599Y-118846600D01*
X168839125Y-118789010D01*
X169111853Y-118676042D01*
X169357302Y-118512039D01*
X169566039Y-118303302D01*
X169672000Y-118144719D01*
X169777961Y-118303302D01*
X169986698Y-118512039D01*
X170232147Y-118676042D01*
X170504875Y-118789010D01*
X170794401Y-118846600D01*
X171089599Y-118846600D01*
X171379125Y-118789010D01*
X171651853Y-118676042D01*
X171897302Y-118512039D01*
X172106039Y-118303302D01*
X172212000Y-118144719D01*
X172317961Y-118303302D01*
X172526698Y-118512039D01*
X172772147Y-118676042D01*
X173044875Y-118789010D01*
X173334401Y-118846600D01*
X173629599Y-118846600D01*
X173919125Y-118789010D01*
X174191853Y-118676042D01*
X174437302Y-118512039D01*
X174646039Y-118303302D01*
X174752000Y-118144719D01*
X174857961Y-118303302D01*
X175066698Y-118512039D01*
X175312147Y-118676042D01*
X175584875Y-118789010D01*
X175874401Y-118846600D01*
X176169599Y-118846600D01*
X176459125Y-118789010D01*
X176731853Y-118676042D01*
X176977302Y-118512039D01*
X177186039Y-118303302D01*
X177350042Y-118057853D01*
X177463010Y-117785125D01*
X177520600Y-117495599D01*
X177520600Y-117200401D01*
X177463010Y-116910875D01*
X177350042Y-116638147D01*
X177186039Y-116392698D01*
X176977302Y-116183961D01*
X176731853Y-116019958D01*
X176459125Y-115906990D01*
X176169599Y-115849400D01*
X175874401Y-115849400D01*
X175584875Y-115906990D01*
X175312147Y-116019958D01*
X175066698Y-116183961D01*
X174857961Y-116392698D01*
X174752000Y-116551281D01*
X174646039Y-116392698D01*
X174437302Y-116183961D01*
X174191853Y-116019958D01*
X173919125Y-115906990D01*
X173629599Y-115849400D01*
X173334401Y-115849400D01*
X173044875Y-115906990D01*
X172772147Y-116019958D01*
X172526698Y-116183961D01*
X172317961Y-116392698D01*
X172212000Y-116551281D01*
X172106039Y-116392698D01*
X171897302Y-116183961D01*
X171651853Y-116019958D01*
X171379125Y-115906990D01*
X171089599Y-115849400D01*
X170794401Y-115849400D01*
X170504875Y-115906990D01*
X170232147Y-116019958D01*
X169986698Y-116183961D01*
X169777961Y-116392698D01*
X169672000Y-116551281D01*
X169566039Y-116392698D01*
X169357302Y-116183961D01*
X169111853Y-116019958D01*
X168839125Y-115906990D01*
X168549599Y-115849400D01*
X168254401Y-115849400D01*
X167964875Y-115906990D01*
X167692147Y-116019958D01*
X167446698Y-116183961D01*
X167237961Y-116392698D01*
X167132000Y-116551281D01*
X167026039Y-116392698D01*
X166817302Y-116183961D01*
X166571853Y-116019958D01*
X166299125Y-115906990D01*
X166009599Y-115849400D01*
X165714401Y-115849400D01*
X165424875Y-115906990D01*
X165152147Y-116019958D01*
X164906698Y-116183961D01*
X164697961Y-116392698D01*
X164592000Y-116551281D01*
X164486039Y-116392698D01*
X164277302Y-116183961D01*
X164031853Y-116019958D01*
X163759125Y-115906990D01*
X163469599Y-115849400D01*
X163174401Y-115849400D01*
X162884875Y-115906990D01*
X162612147Y-116019958D01*
X162366698Y-116183961D01*
X162157961Y-116392698D01*
X161993958Y-116638147D01*
X161880990Y-116910875D01*
X161823400Y-117200401D01*
X159740600Y-117200401D01*
X159683010Y-116910875D01*
X159570042Y-116638147D01*
X159406039Y-116392698D01*
X159197302Y-116183961D01*
X158951853Y-116019958D01*
X158679125Y-115906990D01*
X158389599Y-115849400D01*
X158094401Y-115849400D01*
X157804875Y-115906990D01*
X157532147Y-116019958D01*
X157286698Y-116183961D01*
X157077961Y-116392698D01*
X156970308Y-116553813D01*
X156808854Y-116337707D01*
X156590488Y-116141183D01*
X156337978Y-115991036D01*
X156061027Y-115893037D01*
X155829000Y-116013536D01*
X155575000Y-116013536D01*
X155342973Y-115893037D01*
X155066022Y-115991036D01*
X154813512Y-116141183D01*
X154595146Y-116337707D01*
X154432000Y-116556078D01*
X154268854Y-116337707D01*
X154050488Y-116141183D01*
X153797978Y-115991036D01*
X153521027Y-115893037D01*
X153289000Y-116013536D01*
X153035000Y-116013536D01*
X152802973Y-115893037D01*
X152526022Y-115991036D01*
X152273512Y-116141183D01*
X152055146Y-116337707D01*
X151893692Y-116553813D01*
X151786039Y-116392698D01*
X151577302Y-116183961D01*
X151331853Y-116019958D01*
X151059125Y-115906990D01*
X150769599Y-115849400D01*
X150474401Y-115849400D01*
X150184875Y-115906990D01*
X149912147Y-116019958D01*
X149666698Y-116183961D01*
X149457961Y-116392698D01*
X149352000Y-116551281D01*
X149246039Y-116392698D01*
X149037302Y-116183961D01*
X148791853Y-116019958D01*
X148519125Y-115906990D01*
X148229599Y-115849400D01*
X147934401Y-115849400D01*
X147644875Y-115906990D01*
X147372147Y-116019958D01*
X147126698Y-116183961D01*
X146917961Y-116392698D01*
X146812000Y-116551281D01*
X146706039Y-116392698D01*
X146497302Y-116183961D01*
X146251853Y-116019958D01*
X145979125Y-115906990D01*
X145689599Y-115849400D01*
X145394401Y-115849400D01*
X145104875Y-115906990D01*
X144832147Y-116019958D01*
X144586698Y-116183961D01*
X144377961Y-116392698D01*
X144272000Y-116551281D01*
X144166039Y-116392698D01*
X143957302Y-116183961D01*
X143711853Y-116019958D01*
X143439125Y-115906990D01*
X143149599Y-115849400D01*
X142854401Y-115849400D01*
X142564875Y-115906990D01*
X142292147Y-116019958D01*
X142046698Y-116183961D01*
X141837961Y-116392698D01*
X141732000Y-116551281D01*
X141626039Y-116392698D01*
X141417302Y-116183961D01*
X141171853Y-116019958D01*
X140899125Y-115906990D01*
X140609599Y-115849400D01*
X140314401Y-115849400D01*
X140024875Y-115906990D01*
X139752147Y-116019958D01*
X139506698Y-116183961D01*
X139297961Y-116392698D01*
X139133958Y-116638147D01*
X139020990Y-116910875D01*
X138963400Y-117200401D01*
X128727000Y-117200401D01*
X128727000Y-117127872D01*
X128641110Y-116696075D01*
X128472631Y-116289331D01*
X128228038Y-115923271D01*
X127916729Y-115611962D01*
X127550669Y-115367369D01*
X127143925Y-115198890D01*
X126712128Y-115113000D01*
X126271872Y-115113000D01*
X125840075Y-115198890D01*
X125433331Y-115367369D01*
X125067271Y-115611962D01*
X124755962Y-115923271D01*
X124511369Y-116289331D01*
X124342890Y-116696075D01*
X124257000Y-117127872D01*
X112660000Y-117127872D01*
X112660000Y-113621000D01*
X169116928Y-113621000D01*
X169116928Y-114471000D01*
X169129188Y-114595482D01*
X169165498Y-114715180D01*
X169224463Y-114825494D01*
X169303815Y-114922185D01*
X169400506Y-115001537D01*
X169510820Y-115060502D01*
X169630518Y-115096812D01*
X169755000Y-115109072D01*
X170605000Y-115109072D01*
X170729482Y-115096812D01*
X170849180Y-115060502D01*
X170959494Y-115001537D01*
X171056185Y-114922185D01*
X171135537Y-114825494D01*
X171194502Y-114715180D01*
X171230812Y-114595482D01*
X171243072Y-114471000D01*
X171243072Y-113621000D01*
X171230812Y-113496518D01*
X171194502Y-113376820D01*
X171135537Y-113266506D01*
X171056185Y-113169815D01*
X170959494Y-113090463D01*
X170849180Y-113031498D01*
X170729482Y-112995188D01*
X170605000Y-112982928D01*
X169755000Y-112982928D01*
X169630518Y-112995188D01*
X169510820Y-113031498D01*
X169400506Y-113090463D01*
X169303815Y-113169815D01*
X169224463Y-113266506D01*
X169165498Y-113376820D01*
X169129188Y-113496518D01*
X169116928Y-113621000D01*
X112660000Y-113621000D01*
X112660000Y-112185000D01*
X116538928Y-112185000D01*
X116551188Y-112309482D01*
X116587498Y-112429180D01*
X116646463Y-112539494D01*
X116725815Y-112636185D01*
X116822506Y-112715537D01*
X116932820Y-112774502D01*
X117052518Y-112810812D01*
X117177000Y-112823072D01*
X117316250Y-112820000D01*
X117475000Y-112661250D01*
X117475000Y-111887000D01*
X117729000Y-111887000D01*
X117729000Y-112661250D01*
X117887750Y-112820000D01*
X118027000Y-112823072D01*
X118151482Y-112810812D01*
X118271180Y-112774502D01*
X118381494Y-112715537D01*
X118478185Y-112636185D01*
X118557537Y-112539494D01*
X118616502Y-112429180D01*
X118652812Y-112309482D01*
X118665072Y-112185000D01*
X118662000Y-112045750D01*
X118503250Y-111887000D01*
X117729000Y-111887000D01*
X117475000Y-111887000D01*
X116700750Y-111887000D01*
X116542000Y-112045750D01*
X116538928Y-112185000D01*
X112660000Y-112185000D01*
X112660000Y-111335000D01*
X116538928Y-111335000D01*
X116542000Y-111474250D01*
X116700750Y-111633000D01*
X117475000Y-111633000D01*
X117475000Y-110858750D01*
X117729000Y-110858750D01*
X117729000Y-111633000D01*
X118503250Y-111633000D01*
X118662000Y-111474250D01*
X118665072Y-111335000D01*
X118652812Y-111210518D01*
X118616502Y-111090820D01*
X118557537Y-110980506D01*
X118478185Y-110883815D01*
X118445103Y-110856665D01*
X139535000Y-110856665D01*
X139535000Y-111139335D01*
X139590147Y-111416574D01*
X139698320Y-111677727D01*
X139855363Y-111912759D01*
X140055241Y-112112637D01*
X140290273Y-112269680D01*
X140551426Y-112377853D01*
X140828665Y-112433000D01*
X141111335Y-112433000D01*
X141388574Y-112377853D01*
X141649727Y-112269680D01*
X141884759Y-112112637D01*
X142084637Y-111912759D01*
X142241680Y-111677727D01*
X142349853Y-111416574D01*
X142405000Y-111139335D01*
X142405000Y-110856665D01*
X149695000Y-110856665D01*
X149695000Y-111139335D01*
X149750147Y-111416574D01*
X149858320Y-111677727D01*
X150015363Y-111912759D01*
X150215241Y-112112637D01*
X150450273Y-112269680D01*
X150711426Y-112377853D01*
X150988665Y-112433000D01*
X151271335Y-112433000D01*
X151548574Y-112377853D01*
X151809727Y-112269680D01*
X152044759Y-112112637D01*
X152244637Y-111912759D01*
X152401680Y-111677727D01*
X152509853Y-111416574D01*
X152565000Y-111139335D01*
X152565000Y-110856665D01*
X152509853Y-110579426D01*
X152401680Y-110318273D01*
X152244637Y-110083241D01*
X152044759Y-109883363D01*
X151809727Y-109726320D01*
X151548574Y-109618147D01*
X151271335Y-109563000D01*
X150988665Y-109563000D01*
X150711426Y-109618147D01*
X150450273Y-109726320D01*
X150215241Y-109883363D01*
X150015363Y-110083241D01*
X149858320Y-110318273D01*
X149750147Y-110579426D01*
X149695000Y-110856665D01*
X142405000Y-110856665D01*
X142349853Y-110579426D01*
X142241680Y-110318273D01*
X142084637Y-110083241D01*
X141884759Y-109883363D01*
X141649727Y-109726320D01*
X141388574Y-109618147D01*
X141111335Y-109563000D01*
X140828665Y-109563000D01*
X140551426Y-109618147D01*
X140290273Y-109726320D01*
X140055241Y-109883363D01*
X139855363Y-110083241D01*
X139698320Y-110318273D01*
X139590147Y-110579426D01*
X139535000Y-110856665D01*
X118445103Y-110856665D01*
X118381494Y-110804463D01*
X118271180Y-110745498D01*
X118151482Y-110709188D01*
X118027000Y-110696928D01*
X117887750Y-110700000D01*
X117729000Y-110858750D01*
X117475000Y-110858750D01*
X117316250Y-110700000D01*
X117177000Y-110696928D01*
X117052518Y-110709188D01*
X116932820Y-110745498D01*
X116822506Y-110804463D01*
X116725815Y-110883815D01*
X116646463Y-110980506D01*
X116587498Y-111090820D01*
X116551188Y-111210518D01*
X116538928Y-111335000D01*
X112660000Y-111335000D01*
X112660000Y-109332665D01*
X156807000Y-109332665D01*
X156807000Y-109615335D01*
X156862147Y-109892574D01*
X156970320Y-110153727D01*
X157127363Y-110388759D01*
X157327241Y-110588637D01*
X157562273Y-110745680D01*
X157823426Y-110853853D01*
X158100665Y-110909000D01*
X158383335Y-110909000D01*
X158660574Y-110853853D01*
X158921727Y-110745680D01*
X159156759Y-110588637D01*
X159172396Y-110573000D01*
X169116928Y-110573000D01*
X169116928Y-111423000D01*
X169129188Y-111547482D01*
X169165498Y-111667180D01*
X169224463Y-111777494D01*
X169303815Y-111874185D01*
X169400506Y-111953537D01*
X169510820Y-112012502D01*
X169630518Y-112048812D01*
X169755000Y-112061072D01*
X170605000Y-112061072D01*
X170729482Y-112048812D01*
X170732580Y-112047872D01*
X176327000Y-112047872D01*
X176327000Y-112488128D01*
X176412890Y-112919925D01*
X176581369Y-113326669D01*
X176825962Y-113692729D01*
X177137271Y-114004038D01*
X177503331Y-114248631D01*
X177910075Y-114417110D01*
X178341872Y-114503000D01*
X178782128Y-114503000D01*
X179213925Y-114417110D01*
X179620669Y-114248631D01*
X179986729Y-114004038D01*
X180298038Y-113692729D01*
X180542631Y-113326669D01*
X180711110Y-112919925D01*
X180797000Y-112488128D01*
X180797000Y-112047872D01*
X180711110Y-111616075D01*
X180542631Y-111209331D01*
X180298038Y-110843271D01*
X179986729Y-110531962D01*
X179620669Y-110287369D01*
X179213925Y-110118890D01*
X178782128Y-110033000D01*
X178341872Y-110033000D01*
X177910075Y-110118890D01*
X177503331Y-110287369D01*
X177137271Y-110531962D01*
X176825962Y-110843271D01*
X176581369Y-111209331D01*
X176412890Y-111616075D01*
X176327000Y-112047872D01*
X170732580Y-112047872D01*
X170849180Y-112012502D01*
X170959494Y-111953537D01*
X171056185Y-111874185D01*
X171135537Y-111777494D01*
X171194502Y-111667180D01*
X171230812Y-111547482D01*
X171243072Y-111423000D01*
X171243072Y-110573000D01*
X171230812Y-110448518D01*
X171194502Y-110328820D01*
X171135537Y-110218506D01*
X171056185Y-110121815D01*
X170959494Y-110042463D01*
X170849180Y-109983498D01*
X170729482Y-109947188D01*
X170605000Y-109934928D01*
X169755000Y-109934928D01*
X169630518Y-109947188D01*
X169510820Y-109983498D01*
X169400506Y-110042463D01*
X169303815Y-110121815D01*
X169224463Y-110218506D01*
X169165498Y-110328820D01*
X169129188Y-110448518D01*
X169116928Y-110573000D01*
X159172396Y-110573000D01*
X159356637Y-110388759D01*
X159513680Y-110153727D01*
X159621853Y-109892574D01*
X159677000Y-109615335D01*
X159677000Y-109332665D01*
X159621853Y-109055426D01*
X159513680Y-108794273D01*
X159356637Y-108559241D01*
X159156759Y-108359363D01*
X158921727Y-108202320D01*
X158660574Y-108094147D01*
X158502306Y-108062665D01*
X162427000Y-108062665D01*
X162427000Y-108345335D01*
X162482147Y-108622574D01*
X162590320Y-108883727D01*
X162747363Y-109118759D01*
X162947241Y-109318637D01*
X163182273Y-109475680D01*
X163443426Y-109583853D01*
X163720665Y-109639000D01*
X164003335Y-109639000D01*
X164280574Y-109583853D01*
X164541727Y-109475680D01*
X164597210Y-109438607D01*
X164610815Y-109455185D01*
X164707506Y-109534537D01*
X164817820Y-109593502D01*
X164937518Y-109629812D01*
X165062000Y-109642072D01*
X166662000Y-109642072D01*
X166786482Y-109629812D01*
X166906180Y-109593502D01*
X167016494Y-109534537D01*
X167113185Y-109455185D01*
X167192537Y-109358494D01*
X167251502Y-109248180D01*
X167287812Y-109128482D01*
X167300072Y-109004000D01*
X167300072Y-107850000D01*
X168511928Y-107850000D01*
X168524188Y-107974482D01*
X168560498Y-108094180D01*
X168619463Y-108204494D01*
X168698815Y-108301185D01*
X168795506Y-108380537D01*
X168905820Y-108439502D01*
X169025518Y-108475812D01*
X169150000Y-108488072D01*
X169714250Y-108485000D01*
X169873000Y-108326250D01*
X169873000Y-107127000D01*
X170127000Y-107127000D01*
X170127000Y-108326250D01*
X170285750Y-108485000D01*
X170850000Y-108488072D01*
X170974482Y-108475812D01*
X171094180Y-108439502D01*
X171204494Y-108380537D01*
X171301185Y-108301185D01*
X171380537Y-108204494D01*
X171439502Y-108094180D01*
X171475812Y-107974482D01*
X171488072Y-107850000D01*
X171485000Y-107285750D01*
X171326250Y-107127000D01*
X170127000Y-107127000D01*
X169873000Y-107127000D01*
X168673750Y-107127000D01*
X168515000Y-107285750D01*
X168511928Y-107850000D01*
X167300072Y-107850000D01*
X167300072Y-107404000D01*
X167287812Y-107279518D01*
X167251502Y-107159820D01*
X167192537Y-107049506D01*
X167113185Y-106952815D01*
X167016494Y-106873463D01*
X166906180Y-106814498D01*
X166786482Y-106778188D01*
X166662000Y-106765928D01*
X165062000Y-106765928D01*
X164937518Y-106778188D01*
X164817820Y-106814498D01*
X164707506Y-106873463D01*
X164610815Y-106952815D01*
X164597210Y-106969393D01*
X164541727Y-106932320D01*
X164280574Y-106824147D01*
X164003335Y-106769000D01*
X163720665Y-106769000D01*
X163443426Y-106824147D01*
X163182273Y-106932320D01*
X162947241Y-107089363D01*
X162747363Y-107289241D01*
X162590320Y-107524273D01*
X162482147Y-107785426D01*
X162427000Y-108062665D01*
X158502306Y-108062665D01*
X158383335Y-108039000D01*
X158100665Y-108039000D01*
X157823426Y-108094147D01*
X157562273Y-108202320D01*
X157327241Y-108359363D01*
X157127363Y-108559241D01*
X156970320Y-108794273D01*
X156862147Y-109055426D01*
X156807000Y-109332665D01*
X112660000Y-109332665D01*
X112660000Y-107867000D01*
X116538928Y-107867000D01*
X116551188Y-107991482D01*
X116587498Y-108111180D01*
X116646463Y-108221494D01*
X116725815Y-108318185D01*
X116822506Y-108397537D01*
X116932820Y-108456502D01*
X117052518Y-108492812D01*
X117177000Y-108505072D01*
X117316250Y-108502000D01*
X117475000Y-108343250D01*
X117475000Y-107569000D01*
X117729000Y-107569000D01*
X117729000Y-108343250D01*
X117887750Y-108502000D01*
X118027000Y-108505072D01*
X118151482Y-108492812D01*
X118271180Y-108456502D01*
X118381494Y-108397537D01*
X118478185Y-108318185D01*
X118557537Y-108221494D01*
X118616502Y-108111180D01*
X118652812Y-107991482D01*
X118665072Y-107867000D01*
X118662000Y-107727750D01*
X118503250Y-107569000D01*
X117729000Y-107569000D01*
X117475000Y-107569000D01*
X116700750Y-107569000D01*
X116542000Y-107727750D01*
X116538928Y-107867000D01*
X112660000Y-107867000D01*
X112660000Y-107017000D01*
X116538928Y-107017000D01*
X116542000Y-107156250D01*
X116700750Y-107315000D01*
X117475000Y-107315000D01*
X117475000Y-106540750D01*
X117729000Y-106540750D01*
X117729000Y-107315000D01*
X118503250Y-107315000D01*
X118662000Y-107156250D01*
X118665072Y-107017000D01*
X118652812Y-106892518D01*
X118616502Y-106772820D01*
X118557537Y-106662506D01*
X118478185Y-106565815D01*
X118381494Y-106486463D01*
X118271180Y-106427498D01*
X118151482Y-106391188D01*
X118027000Y-106378928D01*
X117887750Y-106382000D01*
X117729000Y-106540750D01*
X117475000Y-106540750D01*
X117316250Y-106382000D01*
X117177000Y-106378928D01*
X117052518Y-106391188D01*
X116932820Y-106427498D01*
X116822506Y-106486463D01*
X116725815Y-106565815D01*
X116646463Y-106662506D01*
X116587498Y-106772820D01*
X116551188Y-106892518D01*
X116538928Y-107017000D01*
X112660000Y-107017000D01*
X112660000Y-105880000D01*
X130641928Y-105880000D01*
X130641928Y-107480000D01*
X130654188Y-107604482D01*
X130690498Y-107724180D01*
X130749463Y-107834494D01*
X130828815Y-107931185D01*
X130925506Y-108010537D01*
X131035820Y-108069502D01*
X131155518Y-108105812D01*
X131280000Y-108118072D01*
X132880000Y-108118072D01*
X133004482Y-108105812D01*
X133124180Y-108069502D01*
X133234494Y-108010537D01*
X133331185Y-107931185D01*
X133344790Y-107914607D01*
X133400273Y-107951680D01*
X133661426Y-108059853D01*
X133938665Y-108115000D01*
X134221335Y-108115000D01*
X134498574Y-108059853D01*
X134759727Y-107951680D01*
X134994759Y-107794637D01*
X135194637Y-107594759D01*
X135351680Y-107359727D01*
X135459853Y-107098574D01*
X135515000Y-106821335D01*
X135515000Y-106538665D01*
X135459853Y-106261426D01*
X135413699Y-106150000D01*
X168511928Y-106150000D01*
X168515000Y-106714250D01*
X168673750Y-106873000D01*
X169873000Y-106873000D01*
X169873000Y-106853000D01*
X170127000Y-106853000D01*
X170127000Y-106873000D01*
X171326250Y-106873000D01*
X171485000Y-106714250D01*
X171488072Y-106150000D01*
X171475812Y-106025518D01*
X171439502Y-105905820D01*
X171380537Y-105795506D01*
X171301185Y-105698815D01*
X171204494Y-105619463D01*
X171094180Y-105560498D01*
X171021620Y-105538487D01*
X171153475Y-105406632D01*
X171315990Y-105163411D01*
X171427932Y-104893158D01*
X171485000Y-104606260D01*
X171485000Y-104313740D01*
X171427932Y-104026842D01*
X171315990Y-103756589D01*
X171153475Y-103513368D01*
X170946632Y-103306525D01*
X170772240Y-103190000D01*
X170946632Y-103073475D01*
X171153475Y-102866632D01*
X171315990Y-102623411D01*
X171427932Y-102353158D01*
X171485000Y-102066260D01*
X171485000Y-101773740D01*
X171427932Y-101486842D01*
X171315990Y-101216589D01*
X171153475Y-100973368D01*
X170946632Y-100766525D01*
X170703411Y-100604010D01*
X170433158Y-100492068D01*
X170146260Y-100435000D01*
X169853740Y-100435000D01*
X169566842Y-100492068D01*
X169296589Y-100604010D01*
X169053368Y-100766525D01*
X168846525Y-100973368D01*
X168684010Y-101216589D01*
X168572068Y-101486842D01*
X168515000Y-101773740D01*
X168515000Y-102066260D01*
X168572068Y-102353158D01*
X168684010Y-102623411D01*
X168846525Y-102866632D01*
X169053368Y-103073475D01*
X169227760Y-103190000D01*
X169053368Y-103306525D01*
X168846525Y-103513368D01*
X168684010Y-103756589D01*
X168572068Y-104026842D01*
X168515000Y-104313740D01*
X168515000Y-104606260D01*
X168572068Y-104893158D01*
X168684010Y-105163411D01*
X168846525Y-105406632D01*
X168978380Y-105538487D01*
X168905820Y-105560498D01*
X168795506Y-105619463D01*
X168698815Y-105698815D01*
X168619463Y-105795506D01*
X168560498Y-105905820D01*
X168524188Y-106025518D01*
X168511928Y-106150000D01*
X135413699Y-106150000D01*
X135351680Y-106000273D01*
X135194637Y-105765241D01*
X134994759Y-105565363D01*
X134759727Y-105408320D01*
X134498574Y-105300147D01*
X134221335Y-105245000D01*
X133938665Y-105245000D01*
X133661426Y-105300147D01*
X133400273Y-105408320D01*
X133344790Y-105445393D01*
X133331185Y-105428815D01*
X133234494Y-105349463D01*
X133124180Y-105290498D01*
X133004482Y-105254188D01*
X132880000Y-105241928D01*
X131280000Y-105241928D01*
X131155518Y-105254188D01*
X131035820Y-105290498D01*
X130925506Y-105349463D01*
X130828815Y-105428815D01*
X130749463Y-105525506D01*
X130690498Y-105635820D01*
X130654188Y-105755518D01*
X130641928Y-105880000D01*
X112660000Y-105880000D01*
X112660000Y-103207000D01*
X116538928Y-103207000D01*
X116538928Y-104057000D01*
X116551188Y-104181482D01*
X116587498Y-104301180D01*
X116646463Y-104411494D01*
X116725815Y-104508185D01*
X116822506Y-104587537D01*
X116932820Y-104646502D01*
X117052518Y-104682812D01*
X117177000Y-104695072D01*
X118027000Y-104695072D01*
X118151482Y-104682812D01*
X118271180Y-104646502D01*
X118381494Y-104587537D01*
X118478185Y-104508185D01*
X118557537Y-104411494D01*
X118616502Y-104301180D01*
X118652812Y-104181482D01*
X118665072Y-104057000D01*
X118665072Y-103236665D01*
X139535000Y-103236665D01*
X139535000Y-103519335D01*
X139590147Y-103796574D01*
X139698320Y-104057727D01*
X139855363Y-104292759D01*
X140055241Y-104492637D01*
X140290273Y-104649680D01*
X140551426Y-104757853D01*
X140828665Y-104813000D01*
X141111335Y-104813000D01*
X141388574Y-104757853D01*
X141649727Y-104649680D01*
X141884759Y-104492637D01*
X142084637Y-104292759D01*
X142241680Y-104057727D01*
X142349853Y-103796574D01*
X142405000Y-103519335D01*
X142405000Y-103236665D01*
X149695000Y-103236665D01*
X149695000Y-103519335D01*
X149750147Y-103796574D01*
X149858320Y-104057727D01*
X150015363Y-104292759D01*
X150215241Y-104492637D01*
X150450273Y-104649680D01*
X150711426Y-104757853D01*
X150988665Y-104813000D01*
X151271335Y-104813000D01*
X151548574Y-104757853D01*
X151809727Y-104649680D01*
X152044759Y-104492637D01*
X152204731Y-104332665D01*
X156807000Y-104332665D01*
X156807000Y-104615335D01*
X156862147Y-104892574D01*
X156970320Y-105153727D01*
X157127363Y-105388759D01*
X157327241Y-105588637D01*
X157562273Y-105745680D01*
X157823426Y-105853853D01*
X158100665Y-105909000D01*
X158383335Y-105909000D01*
X158660574Y-105853853D01*
X158921727Y-105745680D01*
X159156759Y-105588637D01*
X159356637Y-105388759D01*
X159513680Y-105153727D01*
X159621853Y-104892574D01*
X159677000Y-104615335D01*
X159677000Y-104332665D01*
X159621853Y-104055426D01*
X159513680Y-103794273D01*
X159356637Y-103559241D01*
X159156759Y-103359363D01*
X158921727Y-103202320D01*
X158660574Y-103094147D01*
X158383335Y-103039000D01*
X158100665Y-103039000D01*
X157823426Y-103094147D01*
X157562273Y-103202320D01*
X157327241Y-103359363D01*
X157127363Y-103559241D01*
X156970320Y-103794273D01*
X156862147Y-104055426D01*
X156807000Y-104332665D01*
X152204731Y-104332665D01*
X152244637Y-104292759D01*
X152401680Y-104057727D01*
X152509853Y-103796574D01*
X152565000Y-103519335D01*
X152565000Y-103236665D01*
X152509853Y-102959426D01*
X152401680Y-102698273D01*
X152244637Y-102463241D01*
X152044759Y-102263363D01*
X151809727Y-102106320D01*
X151548574Y-101998147D01*
X151271335Y-101943000D01*
X150988665Y-101943000D01*
X150711426Y-101998147D01*
X150450273Y-102106320D01*
X150215241Y-102263363D01*
X150015363Y-102463241D01*
X149858320Y-102698273D01*
X149750147Y-102959426D01*
X149695000Y-103236665D01*
X142405000Y-103236665D01*
X142349853Y-102959426D01*
X142241680Y-102698273D01*
X142084637Y-102463241D01*
X141884759Y-102263363D01*
X141649727Y-102106320D01*
X141388574Y-101998147D01*
X141111335Y-101943000D01*
X140828665Y-101943000D01*
X140551426Y-101998147D01*
X140290273Y-102106320D01*
X140055241Y-102263363D01*
X139855363Y-102463241D01*
X139698320Y-102698273D01*
X139590147Y-102959426D01*
X139535000Y-103236665D01*
X118665072Y-103236665D01*
X118665072Y-103207000D01*
X118652812Y-103082518D01*
X118616502Y-102962820D01*
X118557537Y-102852506D01*
X118478185Y-102755815D01*
X118381494Y-102676463D01*
X118271180Y-102617498D01*
X118151482Y-102581188D01*
X118027000Y-102568928D01*
X117177000Y-102568928D01*
X117052518Y-102581188D01*
X116932820Y-102617498D01*
X116822506Y-102676463D01*
X116725815Y-102755815D01*
X116646463Y-102852506D01*
X116587498Y-102962820D01*
X116551188Y-103082518D01*
X116538928Y-103207000D01*
X112660000Y-103207000D01*
X112660000Y-100858665D01*
X128105000Y-100858665D01*
X128105000Y-101141335D01*
X128160147Y-101418574D01*
X128268320Y-101679727D01*
X128425363Y-101914759D01*
X128625241Y-102114637D01*
X128860273Y-102271680D01*
X129121426Y-102379853D01*
X129398665Y-102435000D01*
X129681335Y-102435000D01*
X129958574Y-102379853D01*
X130219727Y-102271680D01*
X130454759Y-102114637D01*
X130654637Y-101914759D01*
X130811680Y-101679727D01*
X130919853Y-101418574D01*
X130975000Y-101141335D01*
X130975000Y-100858665D01*
X135725000Y-100858665D01*
X135725000Y-101141335D01*
X135780147Y-101418574D01*
X135888320Y-101679727D01*
X136045363Y-101914759D01*
X136245241Y-102114637D01*
X136480273Y-102271680D01*
X136741426Y-102379853D01*
X137018665Y-102435000D01*
X137301335Y-102435000D01*
X137578574Y-102379853D01*
X137839727Y-102271680D01*
X138074759Y-102114637D01*
X138274637Y-101914759D01*
X138431680Y-101679727D01*
X138539853Y-101418574D01*
X138595000Y-101141335D01*
X138595000Y-100858665D01*
X138539853Y-100581426D01*
X138431680Y-100320273D01*
X138274637Y-100085241D01*
X138074759Y-99885363D01*
X137839727Y-99728320D01*
X137578574Y-99620147D01*
X137301335Y-99565000D01*
X137018665Y-99565000D01*
X136741426Y-99620147D01*
X136480273Y-99728320D01*
X136245241Y-99885363D01*
X136045363Y-100085241D01*
X135888320Y-100320273D01*
X135780147Y-100581426D01*
X135725000Y-100858665D01*
X130975000Y-100858665D01*
X130919853Y-100581426D01*
X130811680Y-100320273D01*
X130654637Y-100085241D01*
X130454759Y-99885363D01*
X130219727Y-99728320D01*
X129958574Y-99620147D01*
X129681335Y-99565000D01*
X129398665Y-99565000D01*
X129121426Y-99620147D01*
X128860273Y-99728320D01*
X128625241Y-99885363D01*
X128425363Y-100085241D01*
X128268320Y-100320273D01*
X128160147Y-100581426D01*
X128105000Y-100858665D01*
X112660000Y-100858665D01*
X112660000Y-94571000D01*
X116538928Y-94571000D01*
X116538928Y-95421000D01*
X116551188Y-95545482D01*
X116587498Y-95665180D01*
X116646463Y-95775494D01*
X116725815Y-95872185D01*
X116822506Y-95951537D01*
X116932820Y-96010502D01*
X117052518Y-96046812D01*
X117177000Y-96059072D01*
X118027000Y-96059072D01*
X118151482Y-96046812D01*
X118271180Y-96010502D01*
X118381494Y-95951537D01*
X118478185Y-95872185D01*
X118557537Y-95775494D01*
X118616502Y-95665180D01*
X118652812Y-95545482D01*
X118665072Y-95421000D01*
X118665072Y-94858665D01*
X128359000Y-94858665D01*
X128359000Y-95141335D01*
X128414147Y-95418574D01*
X128522320Y-95679727D01*
X128679363Y-95914759D01*
X128879241Y-96114637D01*
X129114273Y-96271680D01*
X129375426Y-96379853D01*
X129652665Y-96435000D01*
X129935335Y-96435000D01*
X130212574Y-96379853D01*
X130473727Y-96271680D01*
X130708759Y-96114637D01*
X130908637Y-95914759D01*
X131065680Y-95679727D01*
X131173853Y-95418574D01*
X131229000Y-95141335D01*
X131229000Y-94858665D01*
X135979000Y-94858665D01*
X135979000Y-95141335D01*
X136034147Y-95418574D01*
X136142320Y-95679727D01*
X136299363Y-95914759D01*
X136499241Y-96114637D01*
X136734273Y-96271680D01*
X136995426Y-96379853D01*
X137272665Y-96435000D01*
X137555335Y-96435000D01*
X137832574Y-96379853D01*
X138093727Y-96271680D01*
X138328759Y-96114637D01*
X138528637Y-95914759D01*
X138685680Y-95679727D01*
X138793853Y-95418574D01*
X138849000Y-95141335D01*
X138849000Y-94858665D01*
X138793853Y-94581426D01*
X138685680Y-94320273D01*
X138528637Y-94085241D01*
X138328759Y-93885363D01*
X138093727Y-93728320D01*
X137832574Y-93620147D01*
X137555335Y-93565000D01*
X137272665Y-93565000D01*
X136995426Y-93620147D01*
X136734273Y-93728320D01*
X136499241Y-93885363D01*
X136299363Y-94085241D01*
X136142320Y-94320273D01*
X136034147Y-94581426D01*
X135979000Y-94858665D01*
X131229000Y-94858665D01*
X131173853Y-94581426D01*
X131065680Y-94320273D01*
X130908637Y-94085241D01*
X130708759Y-93885363D01*
X130473727Y-93728320D01*
X130212574Y-93620147D01*
X129935335Y-93565000D01*
X129652665Y-93565000D01*
X129375426Y-93620147D01*
X129114273Y-93728320D01*
X128879241Y-93885363D01*
X128679363Y-94085241D01*
X128522320Y-94320273D01*
X128414147Y-94581426D01*
X128359000Y-94858665D01*
X118665072Y-94858665D01*
X118665072Y-94571000D01*
X118652812Y-94446518D01*
X118616502Y-94326820D01*
X118557537Y-94216506D01*
X118478185Y-94119815D01*
X118381494Y-94040463D01*
X118271180Y-93981498D01*
X118151482Y-93945188D01*
X118027000Y-93932928D01*
X117177000Y-93932928D01*
X117052518Y-93945188D01*
X116932820Y-93981498D01*
X116822506Y-94040463D01*
X116725815Y-94119815D01*
X116646463Y-94216506D01*
X116587498Y-94326820D01*
X116551188Y-94446518D01*
X116538928Y-94571000D01*
X112660000Y-94571000D01*
X112660000Y-92238665D01*
X140945000Y-92238665D01*
X140945000Y-92521335D01*
X141000147Y-92798574D01*
X141108320Y-93059727D01*
X141265363Y-93294759D01*
X141465241Y-93494637D01*
X141697759Y-93650000D01*
X141465241Y-93805363D01*
X141265363Y-94005241D01*
X141108320Y-94240273D01*
X141000147Y-94501426D01*
X140945000Y-94778665D01*
X140945000Y-95061335D01*
X141000147Y-95338574D01*
X141108320Y-95599727D01*
X141265363Y-95834759D01*
X141465241Y-96034637D01*
X141697759Y-96190000D01*
X141465241Y-96345363D01*
X141265363Y-96545241D01*
X141108320Y-96780273D01*
X141000147Y-97041426D01*
X140945000Y-97318665D01*
X140945000Y-97601335D01*
X141000147Y-97878574D01*
X141108320Y-98139727D01*
X141265363Y-98374759D01*
X141465241Y-98574637D01*
X141697759Y-98730000D01*
X141465241Y-98885363D01*
X141265363Y-99085241D01*
X141108320Y-99320273D01*
X141000147Y-99581426D01*
X140945000Y-99858665D01*
X140945000Y-100141335D01*
X141000147Y-100418574D01*
X141108320Y-100679727D01*
X141265363Y-100914759D01*
X141465241Y-101114637D01*
X141700273Y-101271680D01*
X141961426Y-101379853D01*
X142238665Y-101435000D01*
X142521335Y-101435000D01*
X142798574Y-101379853D01*
X143059727Y-101271680D01*
X143294759Y-101114637D01*
X143494637Y-100914759D01*
X143651680Y-100679727D01*
X143759853Y-100418574D01*
X143815000Y-100141335D01*
X143815000Y-99858665D01*
X143759853Y-99581426D01*
X143651680Y-99320273D01*
X143571317Y-99200000D01*
X148561928Y-99200000D01*
X148561928Y-100800000D01*
X148574188Y-100924482D01*
X148610498Y-101044180D01*
X148669463Y-101154494D01*
X148748815Y-101251185D01*
X148845506Y-101330537D01*
X148955820Y-101389502D01*
X149075518Y-101425812D01*
X149200000Y-101438072D01*
X150800000Y-101438072D01*
X150924482Y-101425812D01*
X151044180Y-101389502D01*
X151154494Y-101330537D01*
X151251185Y-101251185D01*
X151289362Y-101204665D01*
X157569000Y-101204665D01*
X157569000Y-101487335D01*
X157624147Y-101764574D01*
X157732320Y-102025727D01*
X157889363Y-102260759D01*
X158089241Y-102460637D01*
X158324273Y-102617680D01*
X158585426Y-102725853D01*
X158862665Y-102781000D01*
X159145335Y-102781000D01*
X159422574Y-102725853D01*
X159683727Y-102617680D01*
X159918759Y-102460637D01*
X160118637Y-102260759D01*
X160275680Y-102025727D01*
X160383853Y-101764574D01*
X160439000Y-101487335D01*
X160439000Y-101204665D01*
X165189000Y-101204665D01*
X165189000Y-101487335D01*
X165244147Y-101764574D01*
X165352320Y-102025727D01*
X165509363Y-102260759D01*
X165709241Y-102460637D01*
X165944273Y-102617680D01*
X166205426Y-102725853D01*
X166482665Y-102781000D01*
X166765335Y-102781000D01*
X167042574Y-102725853D01*
X167303727Y-102617680D01*
X167538759Y-102460637D01*
X167738637Y-102260759D01*
X167895680Y-102025727D01*
X168003853Y-101764574D01*
X168059000Y-101487335D01*
X168059000Y-101204665D01*
X168003853Y-100927426D01*
X167895680Y-100666273D01*
X167738637Y-100431241D01*
X167538759Y-100231363D01*
X167303727Y-100074320D01*
X167042574Y-99966147D01*
X166765335Y-99911000D01*
X166482665Y-99911000D01*
X166205426Y-99966147D01*
X165944273Y-100074320D01*
X165709241Y-100231363D01*
X165509363Y-100431241D01*
X165352320Y-100666273D01*
X165244147Y-100927426D01*
X165189000Y-101204665D01*
X160439000Y-101204665D01*
X160383853Y-100927426D01*
X160275680Y-100666273D01*
X160118637Y-100431241D01*
X159918759Y-100231363D01*
X159683727Y-100074320D01*
X159422574Y-99966147D01*
X159145335Y-99911000D01*
X158862665Y-99911000D01*
X158585426Y-99966147D01*
X158324273Y-100074320D01*
X158089241Y-100231363D01*
X157889363Y-100431241D01*
X157732320Y-100666273D01*
X157624147Y-100927426D01*
X157569000Y-101204665D01*
X151289362Y-101204665D01*
X151330537Y-101154494D01*
X151389502Y-101044180D01*
X151425812Y-100924482D01*
X151438072Y-100800000D01*
X151438072Y-99200000D01*
X151425812Y-99075518D01*
X151389502Y-98955820D01*
X151330537Y-98845506D01*
X151251185Y-98748815D01*
X151154494Y-98669463D01*
X151044180Y-98610498D01*
X150924482Y-98574188D01*
X150916039Y-98573357D01*
X151114637Y-98374759D01*
X151271680Y-98139727D01*
X151377175Y-97885039D01*
X157612096Y-97885039D01*
X157652754Y-98019087D01*
X157772963Y-98273420D01*
X157940481Y-98499414D01*
X158148869Y-98688385D01*
X158390119Y-98833070D01*
X158654960Y-98927909D01*
X158877000Y-98806624D01*
X158877000Y-97663000D01*
X159131000Y-97663000D01*
X159131000Y-98806624D01*
X159353040Y-98927909D01*
X159617881Y-98833070D01*
X159859131Y-98688385D01*
X160067519Y-98499414D01*
X160235037Y-98273420D01*
X160355246Y-98019087D01*
X160395904Y-97885039D01*
X160273915Y-97663000D01*
X159131000Y-97663000D01*
X158877000Y-97663000D01*
X157734085Y-97663000D01*
X157612096Y-97885039D01*
X151377175Y-97885039D01*
X151379853Y-97878574D01*
X151435000Y-97601335D01*
X151435000Y-97318665D01*
X151408803Y-97186961D01*
X157612096Y-97186961D01*
X157734085Y-97409000D01*
X158877000Y-97409000D01*
X158877000Y-96265376D01*
X159131000Y-96265376D01*
X159131000Y-97409000D01*
X160273915Y-97409000D01*
X160281790Y-97394665D01*
X165189000Y-97394665D01*
X165189000Y-97677335D01*
X165244147Y-97954574D01*
X165352320Y-98215727D01*
X165509363Y-98450759D01*
X165709241Y-98650637D01*
X165944273Y-98807680D01*
X166205426Y-98915853D01*
X166482665Y-98971000D01*
X166765335Y-98971000D01*
X167042574Y-98915853D01*
X167303727Y-98807680D01*
X167538759Y-98650637D01*
X167738637Y-98450759D01*
X167895680Y-98215727D01*
X168003853Y-97954574D01*
X168059000Y-97677335D01*
X168059000Y-97394665D01*
X168003853Y-97117426D01*
X167895680Y-96856273D01*
X167738637Y-96621241D01*
X167538759Y-96421363D01*
X167303727Y-96264320D01*
X167042574Y-96156147D01*
X166765335Y-96101000D01*
X166482665Y-96101000D01*
X166205426Y-96156147D01*
X165944273Y-96264320D01*
X165709241Y-96421363D01*
X165509363Y-96621241D01*
X165352320Y-96856273D01*
X165244147Y-97117426D01*
X165189000Y-97394665D01*
X160281790Y-97394665D01*
X160395904Y-97186961D01*
X160355246Y-97052913D01*
X160235037Y-96798580D01*
X160067519Y-96572586D01*
X159859131Y-96383615D01*
X159617881Y-96238930D01*
X159353040Y-96144091D01*
X159131000Y-96265376D01*
X158877000Y-96265376D01*
X158654960Y-96144091D01*
X158390119Y-96238930D01*
X158148869Y-96383615D01*
X157940481Y-96572586D01*
X157772963Y-96798580D01*
X157652754Y-97052913D01*
X157612096Y-97186961D01*
X151408803Y-97186961D01*
X151379853Y-97041426D01*
X151271680Y-96780273D01*
X151114637Y-96545241D01*
X150914759Y-96345363D01*
X150682241Y-96190000D01*
X150914759Y-96034637D01*
X151078731Y-95870665D01*
X168745000Y-95870665D01*
X168745000Y-96153335D01*
X168800147Y-96430574D01*
X168908320Y-96691727D01*
X169065363Y-96926759D01*
X169265241Y-97126637D01*
X169500273Y-97283680D01*
X169761426Y-97391853D01*
X170038665Y-97447000D01*
X170321335Y-97447000D01*
X170598574Y-97391853D01*
X170859727Y-97283680D01*
X171094759Y-97126637D01*
X171294637Y-96926759D01*
X171451680Y-96691727D01*
X171559853Y-96430574D01*
X171615000Y-96153335D01*
X171615000Y-95870665D01*
X171559853Y-95593426D01*
X171451680Y-95332273D01*
X171294637Y-95097241D01*
X171094759Y-94897363D01*
X170859727Y-94740320D01*
X170598574Y-94632147D01*
X170321335Y-94577000D01*
X170038665Y-94577000D01*
X169761426Y-94632147D01*
X169500273Y-94740320D01*
X169265241Y-94897363D01*
X169065363Y-95097241D01*
X168908320Y-95332273D01*
X168800147Y-95593426D01*
X168745000Y-95870665D01*
X151078731Y-95870665D01*
X151114637Y-95834759D01*
X151271680Y-95599727D01*
X151379853Y-95338574D01*
X151435000Y-95061335D01*
X151435000Y-94778665D01*
X151379853Y-94501426D01*
X151271680Y-94240273D01*
X151114637Y-94005241D01*
X150914759Y-93805363D01*
X150679727Y-93648320D01*
X150669135Y-93643933D01*
X150855131Y-93532385D01*
X151063519Y-93343414D01*
X151231037Y-93117420D01*
X151351246Y-92863087D01*
X151351969Y-92860702D01*
X155650903Y-92860702D01*
X155722486Y-93104671D01*
X155977996Y-93225571D01*
X156252184Y-93294300D01*
X156534512Y-93308217D01*
X156814130Y-93266787D01*
X157080292Y-93171603D01*
X157205514Y-93104671D01*
X157277097Y-92860702D01*
X156464000Y-92047605D01*
X155650903Y-92860702D01*
X151351969Y-92860702D01*
X151391904Y-92729039D01*
X151269915Y-92507000D01*
X150127000Y-92507000D01*
X150127000Y-92527000D01*
X149873000Y-92527000D01*
X149873000Y-92507000D01*
X148730085Y-92507000D01*
X148608096Y-92729039D01*
X148648754Y-92863087D01*
X148768963Y-93117420D01*
X148936481Y-93343414D01*
X149144869Y-93532385D01*
X149330865Y-93643933D01*
X149320273Y-93648320D01*
X149085241Y-93805363D01*
X148885363Y-94005241D01*
X148728320Y-94240273D01*
X148620147Y-94501426D01*
X148565000Y-94778665D01*
X148565000Y-95061335D01*
X148620147Y-95338574D01*
X148728320Y-95599727D01*
X148885363Y-95834759D01*
X149085241Y-96034637D01*
X149317759Y-96190000D01*
X149085241Y-96345363D01*
X148885363Y-96545241D01*
X148728320Y-96780273D01*
X148620147Y-97041426D01*
X148565000Y-97318665D01*
X148565000Y-97601335D01*
X148620147Y-97878574D01*
X148728320Y-98139727D01*
X148885363Y-98374759D01*
X149083961Y-98573357D01*
X149075518Y-98574188D01*
X148955820Y-98610498D01*
X148845506Y-98669463D01*
X148748815Y-98748815D01*
X148669463Y-98845506D01*
X148610498Y-98955820D01*
X148574188Y-99075518D01*
X148561928Y-99200000D01*
X143571317Y-99200000D01*
X143494637Y-99085241D01*
X143294759Y-98885363D01*
X143062241Y-98730000D01*
X143294759Y-98574637D01*
X143494637Y-98374759D01*
X143651680Y-98139727D01*
X143759853Y-97878574D01*
X143815000Y-97601335D01*
X143815000Y-97318665D01*
X143759853Y-97041426D01*
X143651680Y-96780273D01*
X143494637Y-96545241D01*
X143294759Y-96345363D01*
X143062241Y-96190000D01*
X143294759Y-96034637D01*
X143494637Y-95834759D01*
X143651680Y-95599727D01*
X143759853Y-95338574D01*
X143815000Y-95061335D01*
X143815000Y-94778665D01*
X143759853Y-94501426D01*
X143651680Y-94240273D01*
X143494637Y-94005241D01*
X143294759Y-93805363D01*
X143062241Y-93650000D01*
X143294759Y-93494637D01*
X143494637Y-93294759D01*
X143651680Y-93059727D01*
X143759853Y-92798574D01*
X143815000Y-92521335D01*
X143815000Y-92238665D01*
X143773685Y-92030961D01*
X148608096Y-92030961D01*
X148730085Y-92253000D01*
X149873000Y-92253000D01*
X149873000Y-91109376D01*
X150127000Y-91109376D01*
X150127000Y-92253000D01*
X151269915Y-92253000D01*
X151391904Y-92030961D01*
X151363864Y-91938512D01*
X155023783Y-91938512D01*
X155065213Y-92218130D01*
X155160397Y-92484292D01*
X155227329Y-92609514D01*
X155471298Y-92681097D01*
X156284395Y-91868000D01*
X156643605Y-91868000D01*
X157456702Y-92681097D01*
X157700671Y-92609514D01*
X157821571Y-92354004D01*
X157890300Y-92079816D01*
X157904217Y-91797488D01*
X157862787Y-91517870D01*
X157767603Y-91251708D01*
X157700671Y-91126486D01*
X157456702Y-91054903D01*
X156643605Y-91868000D01*
X156284395Y-91868000D01*
X155471298Y-91054903D01*
X155227329Y-91126486D01*
X155106429Y-91381996D01*
X155037700Y-91656184D01*
X155023783Y-91938512D01*
X151363864Y-91938512D01*
X151351246Y-91896913D01*
X151231037Y-91642580D01*
X151063519Y-91416586D01*
X150855131Y-91227615D01*
X150613881Y-91082930D01*
X150349040Y-90988091D01*
X150127000Y-91109376D01*
X149873000Y-91109376D01*
X149650960Y-90988091D01*
X149386119Y-91082930D01*
X149144869Y-91227615D01*
X148936481Y-91416586D01*
X148768963Y-91642580D01*
X148648754Y-91896913D01*
X148608096Y-92030961D01*
X143773685Y-92030961D01*
X143759853Y-91961426D01*
X143651680Y-91700273D01*
X143494637Y-91465241D01*
X143294759Y-91265363D01*
X143059727Y-91108320D01*
X142798574Y-91000147D01*
X142521335Y-90945000D01*
X142238665Y-90945000D01*
X141961426Y-91000147D01*
X141700273Y-91108320D01*
X141465241Y-91265363D01*
X141265363Y-91465241D01*
X141108320Y-91700273D01*
X141000147Y-91961426D01*
X140945000Y-92238665D01*
X112660000Y-92238665D01*
X112660000Y-89774665D01*
X129629000Y-89774665D01*
X129629000Y-90057335D01*
X129684147Y-90334574D01*
X129792320Y-90595727D01*
X129949363Y-90830759D01*
X130149241Y-91030637D01*
X130384273Y-91187680D01*
X130645426Y-91295853D01*
X130922665Y-91351000D01*
X131205335Y-91351000D01*
X131482574Y-91295853D01*
X131743727Y-91187680D01*
X131978759Y-91030637D01*
X132178637Y-90830759D01*
X132335680Y-90595727D01*
X132443853Y-90334574D01*
X132499000Y-90057335D01*
X132499000Y-89774665D01*
X134629000Y-89774665D01*
X134629000Y-90057335D01*
X134684147Y-90334574D01*
X134792320Y-90595727D01*
X134949363Y-90830759D01*
X135149241Y-91030637D01*
X135384273Y-91187680D01*
X135645426Y-91295853D01*
X135922665Y-91351000D01*
X136205335Y-91351000D01*
X136482574Y-91295853D01*
X136743727Y-91187680D01*
X136978759Y-91030637D01*
X137134098Y-90875298D01*
X155650903Y-90875298D01*
X156464000Y-91688395D01*
X157277097Y-90875298D01*
X157205514Y-90631329D01*
X156950004Y-90510429D01*
X156675816Y-90441700D01*
X156393488Y-90427783D01*
X156113870Y-90469213D01*
X155847708Y-90564397D01*
X155722486Y-90631329D01*
X155650903Y-90875298D01*
X137134098Y-90875298D01*
X137178637Y-90830759D01*
X137335680Y-90595727D01*
X137443853Y-90334574D01*
X137499000Y-90057335D01*
X137499000Y-89774665D01*
X137490616Y-89732512D01*
X162421783Y-89732512D01*
X162463213Y-90012130D01*
X162558397Y-90278292D01*
X162625329Y-90403514D01*
X162869298Y-90475097D01*
X163682395Y-89662000D01*
X162869298Y-88848903D01*
X162625329Y-88920486D01*
X162504429Y-89175996D01*
X162435700Y-89450184D01*
X162421783Y-89732512D01*
X137490616Y-89732512D01*
X137443853Y-89497426D01*
X137335680Y-89236273D01*
X137178637Y-89001241D01*
X136978759Y-88801363D01*
X136781110Y-88669298D01*
X163048903Y-88669298D01*
X163862000Y-89482395D01*
X163876143Y-89468253D01*
X164055748Y-89647858D01*
X164041605Y-89662000D01*
X164055748Y-89676143D01*
X163876143Y-89855748D01*
X163862000Y-89841605D01*
X163048903Y-90654702D01*
X163120486Y-90898671D01*
X163375996Y-91019571D01*
X163650184Y-91088300D01*
X163932512Y-91102217D01*
X164212130Y-91060787D01*
X164478292Y-90965603D01*
X164600309Y-90900384D01*
X164610815Y-90913185D01*
X164707506Y-90992537D01*
X164817820Y-91051502D01*
X164937518Y-91087812D01*
X165062000Y-91100072D01*
X166662000Y-91100072D01*
X166786482Y-91087812D01*
X166906180Y-91051502D01*
X167016494Y-90992537D01*
X167113185Y-90913185D01*
X167192537Y-90816494D01*
X167251502Y-90706180D01*
X167287812Y-90586482D01*
X167300072Y-90462000D01*
X167300072Y-88862000D01*
X167287812Y-88737518D01*
X167251502Y-88617820D01*
X167192537Y-88507506D01*
X167113185Y-88410815D01*
X167016494Y-88331463D01*
X166906180Y-88272498D01*
X166834207Y-88250665D01*
X168745000Y-88250665D01*
X168745000Y-88533335D01*
X168800147Y-88810574D01*
X168908320Y-89071727D01*
X169065363Y-89306759D01*
X169265241Y-89506637D01*
X169500273Y-89663680D01*
X169761426Y-89771853D01*
X170038665Y-89827000D01*
X170321335Y-89827000D01*
X170598574Y-89771853D01*
X170859727Y-89663680D01*
X171094759Y-89506637D01*
X171294637Y-89306759D01*
X171325612Y-89260401D01*
X174650400Y-89260401D01*
X174650400Y-89555599D01*
X174707990Y-89845125D01*
X174820958Y-90117853D01*
X174984961Y-90363302D01*
X175193698Y-90572039D01*
X175352281Y-90678000D01*
X175193698Y-90783961D01*
X174984961Y-90992698D01*
X174820958Y-91238147D01*
X174707990Y-91510875D01*
X174650400Y-91800401D01*
X174650400Y-92095599D01*
X174707990Y-92385125D01*
X174820958Y-92657853D01*
X174984961Y-92903302D01*
X175193698Y-93112039D01*
X175352281Y-93218000D01*
X175193698Y-93323961D01*
X174984961Y-93532698D01*
X174820958Y-93778147D01*
X174707990Y-94050875D01*
X174650400Y-94340401D01*
X174650400Y-94635599D01*
X174707990Y-94925125D01*
X174820958Y-95197853D01*
X174984961Y-95443302D01*
X175193698Y-95652039D01*
X175439147Y-95816042D01*
X175711875Y-95929010D01*
X176001401Y-95986600D01*
X176296599Y-95986600D01*
X176586125Y-95929010D01*
X176858853Y-95816042D01*
X177104302Y-95652039D01*
X177313039Y-95443302D01*
X177419000Y-95284719D01*
X177524961Y-95443302D01*
X177733698Y-95652039D01*
X177979147Y-95816042D01*
X178251875Y-95929010D01*
X178541401Y-95986600D01*
X178836599Y-95986600D01*
X179126125Y-95929010D01*
X179398853Y-95816042D01*
X179644302Y-95652039D01*
X179853039Y-95443302D01*
X180017042Y-95197853D01*
X180130010Y-94925125D01*
X180187600Y-94635599D01*
X180187600Y-94340401D01*
X180130010Y-94050875D01*
X180017042Y-93778147D01*
X179853039Y-93532698D01*
X179644302Y-93323961D01*
X179485719Y-93218000D01*
X179644302Y-93112039D01*
X179853039Y-92903302D01*
X180017042Y-92657853D01*
X180130010Y-92385125D01*
X180187600Y-92095599D01*
X180187600Y-91800401D01*
X180130010Y-91510875D01*
X180017042Y-91238147D01*
X179853039Y-90992698D01*
X179644302Y-90783961D01*
X179485719Y-90678000D01*
X179644302Y-90572039D01*
X179853039Y-90363302D01*
X180017042Y-90117853D01*
X180130010Y-89845125D01*
X180187600Y-89555599D01*
X180187600Y-89260401D01*
X180130010Y-88970875D01*
X180017042Y-88698147D01*
X179853039Y-88452698D01*
X179644302Y-88243961D01*
X179398853Y-88079958D01*
X179126125Y-87966990D01*
X178836599Y-87909400D01*
X178541401Y-87909400D01*
X178251875Y-87966990D01*
X177979147Y-88079958D01*
X177733698Y-88243961D01*
X177524961Y-88452698D01*
X177419000Y-88611281D01*
X177313039Y-88452698D01*
X177104302Y-88243961D01*
X176858853Y-88079958D01*
X176586125Y-87966990D01*
X176296599Y-87909400D01*
X176001401Y-87909400D01*
X175711875Y-87966990D01*
X175439147Y-88079958D01*
X175193698Y-88243961D01*
X174984961Y-88452698D01*
X174820958Y-88698147D01*
X174707990Y-88970875D01*
X174650400Y-89260401D01*
X171325612Y-89260401D01*
X171451680Y-89071727D01*
X171559853Y-88810574D01*
X171615000Y-88533335D01*
X171615000Y-88250665D01*
X171559853Y-87973426D01*
X171451680Y-87712273D01*
X171294637Y-87477241D01*
X171094759Y-87277363D01*
X170859727Y-87120320D01*
X170598574Y-87012147D01*
X170321335Y-86957000D01*
X170038665Y-86957000D01*
X169761426Y-87012147D01*
X169500273Y-87120320D01*
X169265241Y-87277363D01*
X169065363Y-87477241D01*
X168908320Y-87712273D01*
X168800147Y-87973426D01*
X168745000Y-88250665D01*
X166834207Y-88250665D01*
X166786482Y-88236188D01*
X166662000Y-88223928D01*
X165062000Y-88223928D01*
X164937518Y-88236188D01*
X164817820Y-88272498D01*
X164707506Y-88331463D01*
X164610815Y-88410815D01*
X164600193Y-88423758D01*
X164348004Y-88304429D01*
X164073816Y-88235700D01*
X163791488Y-88221783D01*
X163511870Y-88263213D01*
X163245708Y-88358397D01*
X163120486Y-88425329D01*
X163048903Y-88669298D01*
X136781110Y-88669298D01*
X136743727Y-88644320D01*
X136482574Y-88536147D01*
X136205335Y-88481000D01*
X135922665Y-88481000D01*
X135645426Y-88536147D01*
X135384273Y-88644320D01*
X135149241Y-88801363D01*
X134949363Y-89001241D01*
X134792320Y-89236273D01*
X134684147Y-89497426D01*
X134629000Y-89774665D01*
X132499000Y-89774665D01*
X132443853Y-89497426D01*
X132335680Y-89236273D01*
X132178637Y-89001241D01*
X131978759Y-88801363D01*
X131743727Y-88644320D01*
X131482574Y-88536147D01*
X131205335Y-88481000D01*
X130922665Y-88481000D01*
X130645426Y-88536147D01*
X130384273Y-88644320D01*
X130149241Y-88801363D01*
X129949363Y-89001241D01*
X129792320Y-89236273D01*
X129684147Y-89497426D01*
X129629000Y-89774665D01*
X112660000Y-89774665D01*
X112660000Y-86726665D01*
X155029000Y-86726665D01*
X155029000Y-87009335D01*
X155084147Y-87286574D01*
X155192320Y-87547727D01*
X155349363Y-87782759D01*
X155549241Y-87982637D01*
X155784273Y-88139680D01*
X156045426Y-88247853D01*
X156322665Y-88303000D01*
X156605335Y-88303000D01*
X156882574Y-88247853D01*
X157143727Y-88139680D01*
X157378759Y-87982637D01*
X157578637Y-87782759D01*
X157735680Y-87547727D01*
X157843853Y-87286574D01*
X157899000Y-87009335D01*
X157899000Y-86726665D01*
X157843853Y-86449426D01*
X157735680Y-86188273D01*
X157578637Y-85953241D01*
X157378759Y-85753363D01*
X157143727Y-85596320D01*
X156882574Y-85488147D01*
X156605335Y-85433000D01*
X156322665Y-85433000D01*
X156045426Y-85488147D01*
X155784273Y-85596320D01*
X155549241Y-85753363D01*
X155349363Y-85953241D01*
X155192320Y-86188273D01*
X155084147Y-86449426D01*
X155029000Y-86726665D01*
X112660000Y-86726665D01*
X112660000Y-84127000D01*
X176327000Y-84127000D01*
X176327000Y-84548128D01*
G36*
X178340000Y-68273381D02*
G01*
X178340001Y-78967581D01*
X178336808Y-79000000D01*
X178349551Y-79129382D01*
X178387290Y-79253792D01*
X178448575Y-79368450D01*
X178510386Y-79443766D01*
X178510389Y-79443769D01*
X178531053Y-79468948D01*
X178556232Y-79489612D01*
X180939619Y-81873000D01*
X112660000Y-81873000D01*
X112660000Y-79537740D01*
X127521600Y-79537740D01*
X127521600Y-79830260D01*
X127578668Y-80117158D01*
X127690610Y-80387411D01*
X127853125Y-80630632D01*
X128059968Y-80837475D01*
X128303189Y-80999990D01*
X128573442Y-81111932D01*
X128860340Y-81169000D01*
X129152860Y-81169000D01*
X129439758Y-81111932D01*
X129710011Y-80999990D01*
X129953232Y-80837475D01*
X130160075Y-80630632D01*
X130322590Y-80387411D01*
X130434532Y-80117158D01*
X130491600Y-79830260D01*
X130491600Y-79537740D01*
X134021600Y-79537740D01*
X134021600Y-79830260D01*
X134078668Y-80117158D01*
X134190610Y-80387411D01*
X134353125Y-80630632D01*
X134559968Y-80837475D01*
X134803189Y-80999990D01*
X135073442Y-81111932D01*
X135360340Y-81169000D01*
X135652860Y-81169000D01*
X135939758Y-81111932D01*
X136210011Y-80999990D01*
X136453232Y-80837475D01*
X136660075Y-80630632D01*
X136822590Y-80387411D01*
X136934532Y-80117158D01*
X136991600Y-79830260D01*
X136991600Y-79537740D01*
X136934532Y-79250842D01*
X136822590Y-78980589D01*
X136660075Y-78737368D01*
X136453232Y-78530525D01*
X136210011Y-78368010D01*
X135939758Y-78256068D01*
X135652860Y-78199000D01*
X135360340Y-78199000D01*
X135073442Y-78256068D01*
X134803189Y-78368010D01*
X134559968Y-78530525D01*
X134353125Y-78737368D01*
X134190610Y-78980589D01*
X134078668Y-79250842D01*
X134021600Y-79537740D01*
X130491600Y-79537740D01*
X130434532Y-79250842D01*
X130322590Y-78980589D01*
X130160075Y-78737368D01*
X129953232Y-78530525D01*
X129710011Y-78368010D01*
X129439758Y-78256068D01*
X129152860Y-78199000D01*
X128860340Y-78199000D01*
X128573442Y-78256068D01*
X128303189Y-78368010D01*
X128059968Y-78530525D01*
X127853125Y-78737368D01*
X127690610Y-78980589D01*
X127578668Y-79250842D01*
X127521600Y-79537740D01*
X112660000Y-79537740D01*
X112660000Y-77575000D01*
X174936928Y-77575000D01*
X174936928Y-78425000D01*
X174949188Y-78549482D01*
X174985498Y-78669180D01*
X175044463Y-78779494D01*
X175123815Y-78876185D01*
X175220506Y-78955537D01*
X175330820Y-79014502D01*
X175450518Y-79050812D01*
X175575000Y-79063072D01*
X176425000Y-79063072D01*
X176549482Y-79050812D01*
X176669180Y-79014502D01*
X176779494Y-78955537D01*
X176876185Y-78876185D01*
X176955537Y-78779494D01*
X177014502Y-78669180D01*
X177050812Y-78549482D01*
X177063072Y-78425000D01*
X177063072Y-77575000D01*
X177050812Y-77450518D01*
X177014502Y-77330820D01*
X176955537Y-77220506D01*
X176876185Y-77123815D01*
X176779494Y-77044463D01*
X176669180Y-76985498D01*
X176549482Y-76949188D01*
X176425000Y-76936928D01*
X175575000Y-76936928D01*
X175450518Y-76949188D01*
X175330820Y-76985498D01*
X175220506Y-77044463D01*
X175123815Y-77123815D01*
X175044463Y-77220506D01*
X174985498Y-77330820D01*
X174949188Y-77450518D01*
X174936928Y-77575000D01*
X112660000Y-77575000D01*
X112660000Y-75037740D01*
X127521600Y-75037740D01*
X127521600Y-75330260D01*
X127578668Y-75617158D01*
X127690610Y-75887411D01*
X127853125Y-76130632D01*
X128059968Y-76337475D01*
X128303189Y-76499990D01*
X128573442Y-76611932D01*
X128860340Y-76669000D01*
X129152860Y-76669000D01*
X129439758Y-76611932D01*
X129710011Y-76499990D01*
X129953232Y-76337475D01*
X130160075Y-76130632D01*
X130322590Y-75887411D01*
X130434532Y-75617158D01*
X130491600Y-75330260D01*
X130491600Y-75037740D01*
X134021600Y-75037740D01*
X134021600Y-75330260D01*
X134078668Y-75617158D01*
X134190610Y-75887411D01*
X134353125Y-76130632D01*
X134559968Y-76337475D01*
X134803189Y-76499990D01*
X135073442Y-76611932D01*
X135360340Y-76669000D01*
X135652860Y-76669000D01*
X135939758Y-76611932D01*
X136210011Y-76499990D01*
X136453232Y-76337475D01*
X136660075Y-76130632D01*
X136822590Y-75887411D01*
X136934532Y-75617158D01*
X136991600Y-75330260D01*
X136991600Y-75037740D01*
X136934532Y-74750842D01*
X136869152Y-74593000D01*
X170386928Y-74593000D01*
X170399188Y-74717482D01*
X170435498Y-74837180D01*
X170494463Y-74947494D01*
X170573815Y-75044185D01*
X170670506Y-75123537D01*
X170780820Y-75182502D01*
X170900518Y-75218812D01*
X171025000Y-75231072D01*
X171164250Y-75228000D01*
X171323000Y-75069250D01*
X171323000Y-74295000D01*
X171577000Y-74295000D01*
X171577000Y-75069250D01*
X171735750Y-75228000D01*
X171875000Y-75231072D01*
X171999482Y-75218812D01*
X172119180Y-75182502D01*
X172229494Y-75123537D01*
X172326185Y-75044185D01*
X172405537Y-74947494D01*
X172464502Y-74837180D01*
X172500812Y-74717482D01*
X172513072Y-74593000D01*
X174704928Y-74593000D01*
X174717188Y-74717482D01*
X174753498Y-74837180D01*
X174812463Y-74947494D01*
X174891815Y-75044185D01*
X174988506Y-75123537D01*
X175098820Y-75182502D01*
X175218518Y-75218812D01*
X175343000Y-75231072D01*
X175482250Y-75228000D01*
X175641000Y-75069250D01*
X175641000Y-74295000D01*
X175895000Y-74295000D01*
X175895000Y-75069250D01*
X176053750Y-75228000D01*
X176193000Y-75231072D01*
X176317482Y-75218812D01*
X176437180Y-75182502D01*
X176547494Y-75123537D01*
X176644185Y-75044185D01*
X176723537Y-74947494D01*
X176782502Y-74837180D01*
X176818812Y-74717482D01*
X176831072Y-74593000D01*
X176828000Y-74453750D01*
X176669250Y-74295000D01*
X175895000Y-74295000D01*
X175641000Y-74295000D01*
X174866750Y-74295000D01*
X174708000Y-74453750D01*
X174704928Y-74593000D01*
X172513072Y-74593000D01*
X172510000Y-74453750D01*
X172351250Y-74295000D01*
X171577000Y-74295000D01*
X171323000Y-74295000D01*
X170548750Y-74295000D01*
X170390000Y-74453750D01*
X170386928Y-74593000D01*
X136869152Y-74593000D01*
X136822590Y-74480589D01*
X136660075Y-74237368D01*
X136453232Y-74030525D01*
X136210011Y-73868010D01*
X135939758Y-73756068D01*
X135874062Y-73743000D01*
X170386928Y-73743000D01*
X170390000Y-73882250D01*
X170548750Y-74041000D01*
X171323000Y-74041000D01*
X171323000Y-73266750D01*
X171577000Y-73266750D01*
X171577000Y-74041000D01*
X172351250Y-74041000D01*
X172510000Y-73882250D01*
X172513072Y-73743000D01*
X174704928Y-73743000D01*
X174708000Y-73882250D01*
X174866750Y-74041000D01*
X175641000Y-74041000D01*
X175641000Y-73266750D01*
X175895000Y-73266750D01*
X175895000Y-74041000D01*
X176669250Y-74041000D01*
X176828000Y-73882250D01*
X176831072Y-73743000D01*
X176818812Y-73618518D01*
X176782502Y-73498820D01*
X176723537Y-73388506D01*
X176644185Y-73291815D01*
X176547494Y-73212463D01*
X176437180Y-73153498D01*
X176317482Y-73117188D01*
X176193000Y-73104928D01*
X176053750Y-73108000D01*
X175895000Y-73266750D01*
X175641000Y-73266750D01*
X175482250Y-73108000D01*
X175343000Y-73104928D01*
X175218518Y-73117188D01*
X175098820Y-73153498D01*
X174988506Y-73212463D01*
X174891815Y-73291815D01*
X174812463Y-73388506D01*
X174753498Y-73498820D01*
X174717188Y-73618518D01*
X174704928Y-73743000D01*
X172513072Y-73743000D01*
X172500812Y-73618518D01*
X172464502Y-73498820D01*
X172405537Y-73388506D01*
X172326185Y-73291815D01*
X172229494Y-73212463D01*
X172119180Y-73153498D01*
X171999482Y-73117188D01*
X171875000Y-73104928D01*
X171735750Y-73108000D01*
X171577000Y-73266750D01*
X171323000Y-73266750D01*
X171164250Y-73108000D01*
X171025000Y-73104928D01*
X170900518Y-73117188D01*
X170780820Y-73153498D01*
X170670506Y-73212463D01*
X170573815Y-73291815D01*
X170494463Y-73388506D01*
X170435498Y-73498820D01*
X170399188Y-73618518D01*
X170386928Y-73743000D01*
X135874062Y-73743000D01*
X135652860Y-73699000D01*
X135360340Y-73699000D01*
X135073442Y-73756068D01*
X134803189Y-73868010D01*
X134559968Y-74030525D01*
X134353125Y-74237368D01*
X134190610Y-74480589D01*
X134078668Y-74750842D01*
X134021600Y-75037740D01*
X130491600Y-75037740D01*
X130434532Y-74750842D01*
X130322590Y-74480589D01*
X130160075Y-74237368D01*
X129953232Y-74030525D01*
X129710011Y-73868010D01*
X129439758Y-73756068D01*
X129152860Y-73699000D01*
X128860340Y-73699000D01*
X128573442Y-73756068D01*
X128303189Y-73868010D01*
X128059968Y-74030525D01*
X127853125Y-74237368D01*
X127690610Y-74480589D01*
X127578668Y-74750842D01*
X127521600Y-75037740D01*
X112660000Y-75037740D01*
X112660000Y-68867872D01*
X125527000Y-68867872D01*
X125527000Y-69308128D01*
X125612890Y-69739925D01*
X125781369Y-70146669D01*
X126025962Y-70512729D01*
X126337271Y-70824038D01*
X126703331Y-71068631D01*
X127110075Y-71237110D01*
X127541872Y-71323000D01*
X127982128Y-71323000D01*
X128413925Y-71237110D01*
X128820669Y-71068631D01*
X129186729Y-70824038D01*
X129498038Y-70512729D01*
X129742631Y-70146669D01*
X129911110Y-69739925D01*
X129928906Y-69650460D01*
X129989958Y-69797853D01*
X130153961Y-70043302D01*
X130362698Y-70252039D01*
X130608147Y-70416042D01*
X130880875Y-70529010D01*
X131170401Y-70586600D01*
X131465599Y-70586600D01*
X131755125Y-70529010D01*
X132027853Y-70416042D01*
X132273302Y-70252039D01*
X132482039Y-70043302D01*
X132588000Y-69884719D01*
X132693961Y-70043302D01*
X132902698Y-70252039D01*
X133148147Y-70416042D01*
X133420875Y-70529010D01*
X133710401Y-70586600D01*
X134005599Y-70586600D01*
X134295125Y-70529010D01*
X134567853Y-70416042D01*
X134813302Y-70252039D01*
X135022039Y-70043302D01*
X135128000Y-69884719D01*
X135233961Y-70043302D01*
X135442698Y-70252039D01*
X135688147Y-70416042D01*
X135960875Y-70529010D01*
X136250401Y-70586600D01*
X136545599Y-70586600D01*
X136835125Y-70529010D01*
X137107853Y-70416042D01*
X137353302Y-70252039D01*
X137562039Y-70043302D01*
X137669692Y-69882187D01*
X137831146Y-70098293D01*
X138049512Y-70294817D01*
X138302022Y-70444964D01*
X138578973Y-70542963D01*
X138811000Y-70422464D01*
X138811000Y-69215000D01*
X138791000Y-69215000D01*
X138791000Y-68961000D01*
X138811000Y-68961000D01*
X138811000Y-67753536D01*
X139065000Y-67753536D01*
X139065000Y-68961000D01*
X139085000Y-68961000D01*
X139085000Y-69215000D01*
X139065000Y-69215000D01*
X139065000Y-70422464D01*
X139297027Y-70542963D01*
X139573978Y-70444964D01*
X139826488Y-70294817D01*
X140044854Y-70098293D01*
X140206308Y-69882187D01*
X140313961Y-70043302D01*
X140522698Y-70252039D01*
X140768147Y-70416042D01*
X141040875Y-70529010D01*
X141330401Y-70586600D01*
X141625599Y-70586600D01*
X141915125Y-70529010D01*
X142187853Y-70416042D01*
X142433302Y-70252039D01*
X142642039Y-70043302D01*
X142748000Y-69884719D01*
X142853961Y-70043302D01*
X143062698Y-70252039D01*
X143308147Y-70416042D01*
X143580875Y-70529010D01*
X143870401Y-70586600D01*
X144165599Y-70586600D01*
X144455125Y-70529010D01*
X144727853Y-70416042D01*
X144973302Y-70252039D01*
X145182039Y-70043302D01*
X145288000Y-69884719D01*
X145393961Y-70043302D01*
X145602698Y-70252039D01*
X145848147Y-70416042D01*
X146120875Y-70529010D01*
X146410401Y-70586600D01*
X146705599Y-70586600D01*
X146995125Y-70529010D01*
X147267853Y-70416042D01*
X147513302Y-70252039D01*
X147722039Y-70043302D01*
X147828000Y-69884719D01*
X147933961Y-70043302D01*
X148142698Y-70252039D01*
X148388147Y-70416042D01*
X148660875Y-70529010D01*
X148950401Y-70586600D01*
X149245599Y-70586600D01*
X149535125Y-70529010D01*
X149807853Y-70416042D01*
X150053302Y-70252039D01*
X150262039Y-70043302D01*
X150368000Y-69884719D01*
X150473961Y-70043302D01*
X150682698Y-70252039D01*
X150928147Y-70416042D01*
X151200875Y-70529010D01*
X151490401Y-70586600D01*
X151785599Y-70586600D01*
X152075125Y-70529010D01*
X152347853Y-70416042D01*
X152593302Y-70252039D01*
X152802039Y-70043302D01*
X152908000Y-69884719D01*
X153013961Y-70043302D01*
X153222698Y-70252039D01*
X153468147Y-70416042D01*
X153740875Y-70529010D01*
X154030401Y-70586600D01*
X154325599Y-70586600D01*
X154615125Y-70529010D01*
X154887853Y-70416042D01*
X155133302Y-70252039D01*
X155342039Y-70043302D01*
X155506042Y-69797853D01*
X155619010Y-69525125D01*
X155676600Y-69235599D01*
X155676600Y-68940401D01*
X156743400Y-68940401D01*
X156743400Y-69235599D01*
X156800990Y-69525125D01*
X156913958Y-69797853D01*
X157077961Y-70043302D01*
X157286698Y-70252039D01*
X157532147Y-70416042D01*
X157804875Y-70529010D01*
X158094401Y-70586600D01*
X158389599Y-70586600D01*
X158679125Y-70529010D01*
X158951853Y-70416042D01*
X159197302Y-70252039D01*
X159406039Y-70043302D01*
X159512000Y-69884719D01*
X159617961Y-70043302D01*
X159826698Y-70252039D01*
X160072147Y-70416042D01*
X160344875Y-70529010D01*
X160634401Y-70586600D01*
X160929599Y-70586600D01*
X161219125Y-70529010D01*
X161491853Y-70416042D01*
X161737302Y-70252039D01*
X161946039Y-70043302D01*
X162052000Y-69884719D01*
X162157961Y-70043302D01*
X162366698Y-70252039D01*
X162612147Y-70416042D01*
X162884875Y-70529010D01*
X163174401Y-70586600D01*
X163469599Y-70586600D01*
X163759125Y-70529010D01*
X164031853Y-70416042D01*
X164277302Y-70252039D01*
X164486039Y-70043302D01*
X164592000Y-69884719D01*
X164697961Y-70043302D01*
X164906698Y-70252039D01*
X165152147Y-70416042D01*
X165424875Y-70529010D01*
X165714401Y-70586600D01*
X166009599Y-70586600D01*
X166299125Y-70529010D01*
X166571853Y-70416042D01*
X166817302Y-70252039D01*
X167026039Y-70043302D01*
X167132000Y-69884719D01*
X167237961Y-70043302D01*
X167446698Y-70252039D01*
X167692147Y-70416042D01*
X167964875Y-70529010D01*
X168254401Y-70586600D01*
X168549599Y-70586600D01*
X168839125Y-70529010D01*
X169111853Y-70416042D01*
X169357302Y-70252039D01*
X169566039Y-70043302D01*
X169672000Y-69884719D01*
X169777961Y-70043302D01*
X169986698Y-70252039D01*
X170232147Y-70416042D01*
X170504875Y-70529010D01*
X170794401Y-70586600D01*
X171089599Y-70586600D01*
X171379125Y-70529010D01*
X171651853Y-70416042D01*
X171897302Y-70252039D01*
X172106039Y-70043302D01*
X172212000Y-69884719D01*
X172317961Y-70043302D01*
X172526698Y-70252039D01*
X172772147Y-70416042D01*
X173044875Y-70529010D01*
X173334401Y-70586600D01*
X173629599Y-70586600D01*
X173919125Y-70529010D01*
X174191853Y-70416042D01*
X174437302Y-70252039D01*
X174646039Y-70043302D01*
X174752000Y-69884719D01*
X174857961Y-70043302D01*
X175066698Y-70252039D01*
X175312147Y-70416042D01*
X175584875Y-70529010D01*
X175874401Y-70586600D01*
X176169599Y-70586600D01*
X176459125Y-70529010D01*
X176731853Y-70416042D01*
X176977302Y-70252039D01*
X177186039Y-70043302D01*
X177350042Y-69797853D01*
X177463010Y-69525125D01*
X177520600Y-69235599D01*
X177520600Y-68940401D01*
X177463010Y-68650875D01*
X177350042Y-68378147D01*
X177186039Y-68132698D01*
X176977302Y-67923961D01*
X176731853Y-67759958D01*
X176459125Y-67646990D01*
X176169599Y-67589400D01*
X175874401Y-67589400D01*
X175584875Y-67646990D01*
X175312147Y-67759958D01*
X175066698Y-67923961D01*
X174857961Y-68132698D01*
X174752000Y-68291281D01*
X174646039Y-68132698D01*
X174437302Y-67923961D01*
X174191853Y-67759958D01*
X173919125Y-67646990D01*
X173629599Y-67589400D01*
X173334401Y-67589400D01*
X173044875Y-67646990D01*
X172772147Y-67759958D01*
X172526698Y-67923961D01*
X172317961Y-68132698D01*
X172212000Y-68291281D01*
X172106039Y-68132698D01*
X171897302Y-67923961D01*
X171651853Y-67759958D01*
X171379125Y-67646990D01*
X171089599Y-67589400D01*
X170794401Y-67589400D01*
X170504875Y-67646990D01*
X170232147Y-67759958D01*
X169986698Y-67923961D01*
X169777961Y-68132698D01*
X169672000Y-68291281D01*
X169566039Y-68132698D01*
X169357302Y-67923961D01*
X169111853Y-67759958D01*
X168839125Y-67646990D01*
X168549599Y-67589400D01*
X168254401Y-67589400D01*
X167964875Y-67646990D01*
X167692147Y-67759958D01*
X167446698Y-67923961D01*
X167237961Y-68132698D01*
X167132000Y-68291281D01*
X167026039Y-68132698D01*
X166817302Y-67923961D01*
X166571853Y-67759958D01*
X166299125Y-67646990D01*
X166009599Y-67589400D01*
X165714401Y-67589400D01*
X165424875Y-67646990D01*
X165152147Y-67759958D01*
X164906698Y-67923961D01*
X164697961Y-68132698D01*
X164592000Y-68291281D01*
X164486039Y-68132698D01*
X164277302Y-67923961D01*
X164031853Y-67759958D01*
X163759125Y-67646990D01*
X163469599Y-67589400D01*
X163174401Y-67589400D01*
X162884875Y-67646990D01*
X162612147Y-67759958D01*
X162366698Y-67923961D01*
X162157961Y-68132698D01*
X162052000Y-68291281D01*
X161946039Y-68132698D01*
X161737302Y-67923961D01*
X161491853Y-67759958D01*
X161219125Y-67646990D01*
X160929599Y-67589400D01*
X160634401Y-67589400D01*
X160344875Y-67646990D01*
X160072147Y-67759958D01*
X159826698Y-67923961D01*
X159617961Y-68132698D01*
X159512000Y-68291281D01*
X159406039Y-68132698D01*
X159197302Y-67923961D01*
X158951853Y-67759958D01*
X158679125Y-67646990D01*
X158389599Y-67589400D01*
X158094401Y-67589400D01*
X157804875Y-67646990D01*
X157532147Y-67759958D01*
X157286698Y-67923961D01*
X157077961Y-68132698D01*
X156913958Y-68378147D01*
X156800990Y-68650875D01*
X156743400Y-68940401D01*
X155676600Y-68940401D01*
X155619010Y-68650875D01*
X155506042Y-68378147D01*
X155342039Y-68132698D01*
X155133302Y-67923961D01*
X154887853Y-67759958D01*
X154615125Y-67646990D01*
X154325599Y-67589400D01*
X154030401Y-67589400D01*
X153740875Y-67646990D01*
X153468147Y-67759958D01*
X153222698Y-67923961D01*
X153013961Y-68132698D01*
X152908000Y-68291281D01*
X152802039Y-68132698D01*
X152593302Y-67923961D01*
X152347853Y-67759958D01*
X152075125Y-67646990D01*
X151785599Y-67589400D01*
X151490401Y-67589400D01*
X151200875Y-67646990D01*
X150928147Y-67759958D01*
X150682698Y-67923961D01*
X150473961Y-68132698D01*
X150368000Y-68291281D01*
X150262039Y-68132698D01*
X150053302Y-67923961D01*
X149807853Y-67759958D01*
X149535125Y-67646990D01*
X149245599Y-67589400D01*
X148950401Y-67589400D01*
X148660875Y-67646990D01*
X148388147Y-67759958D01*
X148142698Y-67923961D01*
X147933961Y-68132698D01*
X147828000Y-68291281D01*
X147722039Y-68132698D01*
X147513302Y-67923961D01*
X147267853Y-67759958D01*
X146995125Y-67646990D01*
X146705599Y-67589400D01*
X146410401Y-67589400D01*
X146120875Y-67646990D01*
X145848147Y-67759958D01*
X145602698Y-67923961D01*
X145393961Y-68132698D01*
X145288000Y-68291281D01*
X145182039Y-68132698D01*
X144973302Y-67923961D01*
X144727853Y-67759958D01*
X144455125Y-67646990D01*
X144165599Y-67589400D01*
X143870401Y-67589400D01*
X143580875Y-67646990D01*
X143308147Y-67759958D01*
X143062698Y-67923961D01*
X142853961Y-68132698D01*
X142748000Y-68291281D01*
X142642039Y-68132698D01*
X142433302Y-67923961D01*
X142187853Y-67759958D01*
X141915125Y-67646990D01*
X141625599Y-67589400D01*
X141330401Y-67589400D01*
X141040875Y-67646990D01*
X140768147Y-67759958D01*
X140522698Y-67923961D01*
X140313961Y-68132698D01*
X140206308Y-68293813D01*
X140044854Y-68077707D01*
X139826488Y-67881183D01*
X139573978Y-67731036D01*
X139297027Y-67633037D01*
X139065000Y-67753536D01*
X138811000Y-67753536D01*
X138578973Y-67633037D01*
X138302022Y-67731036D01*
X138049512Y-67881183D01*
X137831146Y-68077707D01*
X137669692Y-68293813D01*
X137562039Y-68132698D01*
X137353302Y-67923961D01*
X137107853Y-67759958D01*
X136835125Y-67646990D01*
X136545599Y-67589400D01*
X136250401Y-67589400D01*
X135960875Y-67646990D01*
X135688147Y-67759958D01*
X135442698Y-67923961D01*
X135233961Y-68132698D01*
X135128000Y-68291281D01*
X135022039Y-68132698D01*
X134813302Y-67923961D01*
X134567853Y-67759958D01*
X134295125Y-67646990D01*
X134005599Y-67589400D01*
X133710401Y-67589400D01*
X133420875Y-67646990D01*
X133148147Y-67759958D01*
X132902698Y-67923961D01*
X132693961Y-68132698D01*
X132588000Y-68291281D01*
X132482039Y-68132698D01*
X132273302Y-67923961D01*
X132027853Y-67759958D01*
X131755125Y-67646990D01*
X131465599Y-67589400D01*
X131170401Y-67589400D01*
X130880875Y-67646990D01*
X130608147Y-67759958D01*
X130362698Y-67923961D01*
X130153961Y-68132698D01*
X129989958Y-68378147D01*
X129928906Y-68525540D01*
X129911110Y-68436075D01*
X129742631Y-68029331D01*
X129498038Y-67663271D01*
X129186729Y-67351962D01*
X128820669Y-67107369D01*
X128413925Y-66938890D01*
X127982128Y-66853000D01*
X127541872Y-66853000D01*
X127110075Y-66938890D01*
X126703331Y-67107369D01*
X126337271Y-67351962D01*
X126025962Y-67663271D01*
X125781369Y-68029331D01*
X125612890Y-68436075D01*
X125527000Y-68867872D01*
X112660000Y-68867872D01*
X112660000Y-66660000D01*
X176726620Y-66660000D01*
X178340000Y-68273381D01*
G37*
X178340000Y-68273381D02*
X178340001Y-78967581D01*
X178336808Y-79000000D01*
X178349551Y-79129382D01*
X178387290Y-79253792D01*
X178448575Y-79368450D01*
X178510386Y-79443766D01*
X178510389Y-79443769D01*
X178531053Y-79468948D01*
X178556232Y-79489612D01*
X180939619Y-81873000D01*
X112660000Y-81873000D01*
X112660000Y-79537740D01*
X127521600Y-79537740D01*
X127521600Y-79830260D01*
X127578668Y-80117158D01*
X127690610Y-80387411D01*
X127853125Y-80630632D01*
X128059968Y-80837475D01*
X128303189Y-80999990D01*
X128573442Y-81111932D01*
X128860340Y-81169000D01*
X129152860Y-81169000D01*
X129439758Y-81111932D01*
X129710011Y-80999990D01*
X129953232Y-80837475D01*
X130160075Y-80630632D01*
X130322590Y-80387411D01*
X130434532Y-80117158D01*
X130491600Y-79830260D01*
X130491600Y-79537740D01*
X134021600Y-79537740D01*
X134021600Y-79830260D01*
X134078668Y-80117158D01*
X134190610Y-80387411D01*
X134353125Y-80630632D01*
X134559968Y-80837475D01*
X134803189Y-80999990D01*
X135073442Y-81111932D01*
X135360340Y-81169000D01*
X135652860Y-81169000D01*
X135939758Y-81111932D01*
X136210011Y-80999990D01*
X136453232Y-80837475D01*
X136660075Y-80630632D01*
X136822590Y-80387411D01*
X136934532Y-80117158D01*
X136991600Y-79830260D01*
X136991600Y-79537740D01*
X136934532Y-79250842D01*
X136822590Y-78980589D01*
X136660075Y-78737368D01*
X136453232Y-78530525D01*
X136210011Y-78368010D01*
X135939758Y-78256068D01*
X135652860Y-78199000D01*
X135360340Y-78199000D01*
X135073442Y-78256068D01*
X134803189Y-78368010D01*
X134559968Y-78530525D01*
X134353125Y-78737368D01*
X134190610Y-78980589D01*
X134078668Y-79250842D01*
X134021600Y-79537740D01*
X130491600Y-79537740D01*
X130434532Y-79250842D01*
X130322590Y-78980589D01*
X130160075Y-78737368D01*
X129953232Y-78530525D01*
X129710011Y-78368010D01*
X129439758Y-78256068D01*
X129152860Y-78199000D01*
X128860340Y-78199000D01*
X128573442Y-78256068D01*
X128303189Y-78368010D01*
X128059968Y-78530525D01*
X127853125Y-78737368D01*
X127690610Y-78980589D01*
X127578668Y-79250842D01*
X127521600Y-79537740D01*
X112660000Y-79537740D01*
X112660000Y-77575000D01*
X174936928Y-77575000D01*
X174936928Y-78425000D01*
X174949188Y-78549482D01*
X174985498Y-78669180D01*
X175044463Y-78779494D01*
X175123815Y-78876185D01*
X175220506Y-78955537D01*
X175330820Y-79014502D01*
X175450518Y-79050812D01*
X175575000Y-79063072D01*
X176425000Y-79063072D01*
X176549482Y-79050812D01*
X176669180Y-79014502D01*
X176779494Y-78955537D01*
X176876185Y-78876185D01*
X176955537Y-78779494D01*
X177014502Y-78669180D01*
X177050812Y-78549482D01*
X177063072Y-78425000D01*
X177063072Y-77575000D01*
X177050812Y-77450518D01*
X177014502Y-77330820D01*
X176955537Y-77220506D01*
X176876185Y-77123815D01*
X176779494Y-77044463D01*
X176669180Y-76985498D01*
X176549482Y-76949188D01*
X176425000Y-76936928D01*
X175575000Y-76936928D01*
X175450518Y-76949188D01*
X175330820Y-76985498D01*
X175220506Y-77044463D01*
X175123815Y-77123815D01*
X175044463Y-77220506D01*
X174985498Y-77330820D01*
X174949188Y-77450518D01*
X174936928Y-77575000D01*
X112660000Y-77575000D01*
X112660000Y-75037740D01*
X127521600Y-75037740D01*
X127521600Y-75330260D01*
X127578668Y-75617158D01*
X127690610Y-75887411D01*
X127853125Y-76130632D01*
X128059968Y-76337475D01*
X128303189Y-76499990D01*
X128573442Y-76611932D01*
X128860340Y-76669000D01*
X129152860Y-76669000D01*
X129439758Y-76611932D01*
X129710011Y-76499990D01*
X129953232Y-76337475D01*
X130160075Y-76130632D01*
X130322590Y-75887411D01*
X130434532Y-75617158D01*
X130491600Y-75330260D01*
X130491600Y-75037740D01*
X134021600Y-75037740D01*
X134021600Y-75330260D01*
X134078668Y-75617158D01*
X134190610Y-75887411D01*
X134353125Y-76130632D01*
X134559968Y-76337475D01*
X134803189Y-76499990D01*
X135073442Y-76611932D01*
X135360340Y-76669000D01*
X135652860Y-76669000D01*
X135939758Y-76611932D01*
X136210011Y-76499990D01*
X136453232Y-76337475D01*
X136660075Y-76130632D01*
X136822590Y-75887411D01*
X136934532Y-75617158D01*
X136991600Y-75330260D01*
X136991600Y-75037740D01*
X136934532Y-74750842D01*
X136869152Y-74593000D01*
X170386928Y-74593000D01*
X170399188Y-74717482D01*
X170435498Y-74837180D01*
X170494463Y-74947494D01*
X170573815Y-75044185D01*
X170670506Y-75123537D01*
X170780820Y-75182502D01*
X170900518Y-75218812D01*
X171025000Y-75231072D01*
X171164250Y-75228000D01*
X171323000Y-75069250D01*
X171323000Y-74295000D01*
X171577000Y-74295000D01*
X171577000Y-75069250D01*
X171735750Y-75228000D01*
X171875000Y-75231072D01*
X171999482Y-75218812D01*
X172119180Y-75182502D01*
X172229494Y-75123537D01*
X172326185Y-75044185D01*
X172405537Y-74947494D01*
X172464502Y-74837180D01*
X172500812Y-74717482D01*
X172513072Y-74593000D01*
X174704928Y-74593000D01*
X174717188Y-74717482D01*
X174753498Y-74837180D01*
X174812463Y-74947494D01*
X174891815Y-75044185D01*
X174988506Y-75123537D01*
X175098820Y-75182502D01*
X175218518Y-75218812D01*
X175343000Y-75231072D01*
X175482250Y-75228000D01*
X175641000Y-75069250D01*
X175641000Y-74295000D01*
X175895000Y-74295000D01*
X175895000Y-75069250D01*
X176053750Y-75228000D01*
X176193000Y-75231072D01*
X176317482Y-75218812D01*
X176437180Y-75182502D01*
X176547494Y-75123537D01*
X176644185Y-75044185D01*
X176723537Y-74947494D01*
X176782502Y-74837180D01*
X176818812Y-74717482D01*
X176831072Y-74593000D01*
X176828000Y-74453750D01*
X176669250Y-74295000D01*
X175895000Y-74295000D01*
X175641000Y-74295000D01*
X174866750Y-74295000D01*
X174708000Y-74453750D01*
X174704928Y-74593000D01*
X172513072Y-74593000D01*
X172510000Y-74453750D01*
X172351250Y-74295000D01*
X171577000Y-74295000D01*
X171323000Y-74295000D01*
X170548750Y-74295000D01*
X170390000Y-74453750D01*
X170386928Y-74593000D01*
X136869152Y-74593000D01*
X136822590Y-74480589D01*
X136660075Y-74237368D01*
X136453232Y-74030525D01*
X136210011Y-73868010D01*
X135939758Y-73756068D01*
X135874062Y-73743000D01*
X170386928Y-73743000D01*
X170390000Y-73882250D01*
X170548750Y-74041000D01*
X171323000Y-74041000D01*
X171323000Y-73266750D01*
X171577000Y-73266750D01*
X171577000Y-74041000D01*
X172351250Y-74041000D01*
X172510000Y-73882250D01*
X172513072Y-73743000D01*
X174704928Y-73743000D01*
X174708000Y-73882250D01*
X174866750Y-74041000D01*
X175641000Y-74041000D01*
X175641000Y-73266750D01*
X175895000Y-73266750D01*
X175895000Y-74041000D01*
X176669250Y-74041000D01*
X176828000Y-73882250D01*
X176831072Y-73743000D01*
X176818812Y-73618518D01*
X176782502Y-73498820D01*
X176723537Y-73388506D01*
X176644185Y-73291815D01*
X176547494Y-73212463D01*
X176437180Y-73153498D01*
X176317482Y-73117188D01*
X176193000Y-73104928D01*
X176053750Y-73108000D01*
X175895000Y-73266750D01*
X175641000Y-73266750D01*
X175482250Y-73108000D01*
X175343000Y-73104928D01*
X175218518Y-73117188D01*
X175098820Y-73153498D01*
X174988506Y-73212463D01*
X174891815Y-73291815D01*
X174812463Y-73388506D01*
X174753498Y-73498820D01*
X174717188Y-73618518D01*
X174704928Y-73743000D01*
X172513072Y-73743000D01*
X172500812Y-73618518D01*
X172464502Y-73498820D01*
X172405537Y-73388506D01*
X172326185Y-73291815D01*
X172229494Y-73212463D01*
X172119180Y-73153498D01*
X171999482Y-73117188D01*
X171875000Y-73104928D01*
X171735750Y-73108000D01*
X171577000Y-73266750D01*
X171323000Y-73266750D01*
X171164250Y-73108000D01*
X171025000Y-73104928D01*
X170900518Y-73117188D01*
X170780820Y-73153498D01*
X170670506Y-73212463D01*
X170573815Y-73291815D01*
X170494463Y-73388506D01*
X170435498Y-73498820D01*
X170399188Y-73618518D01*
X170386928Y-73743000D01*
X135874062Y-73743000D01*
X135652860Y-73699000D01*
X135360340Y-73699000D01*
X135073442Y-73756068D01*
X134803189Y-73868010D01*
X134559968Y-74030525D01*
X134353125Y-74237368D01*
X134190610Y-74480589D01*
X134078668Y-74750842D01*
X134021600Y-75037740D01*
X130491600Y-75037740D01*
X130434532Y-74750842D01*
X130322590Y-74480589D01*
X130160075Y-74237368D01*
X129953232Y-74030525D01*
X129710011Y-73868010D01*
X129439758Y-73756068D01*
X129152860Y-73699000D01*
X128860340Y-73699000D01*
X128573442Y-73756068D01*
X128303189Y-73868010D01*
X128059968Y-74030525D01*
X127853125Y-74237368D01*
X127690610Y-74480589D01*
X127578668Y-74750842D01*
X127521600Y-75037740D01*
X112660000Y-75037740D01*
X112660000Y-68867872D01*
X125527000Y-68867872D01*
X125527000Y-69308128D01*
X125612890Y-69739925D01*
X125781369Y-70146669D01*
X126025962Y-70512729D01*
X126337271Y-70824038D01*
X126703331Y-71068631D01*
X127110075Y-71237110D01*
X127541872Y-71323000D01*
X127982128Y-71323000D01*
X128413925Y-71237110D01*
X128820669Y-71068631D01*
X129186729Y-70824038D01*
X129498038Y-70512729D01*
X129742631Y-70146669D01*
X129911110Y-69739925D01*
X129928906Y-69650460D01*
X129989958Y-69797853D01*
X130153961Y-70043302D01*
X130362698Y-70252039D01*
X130608147Y-70416042D01*
X130880875Y-70529010D01*
X131170401Y-70586600D01*
X131465599Y-70586600D01*
X131755125Y-70529010D01*
X132027853Y-70416042D01*
X132273302Y-70252039D01*
X132482039Y-70043302D01*
X132588000Y-69884719D01*
X132693961Y-70043302D01*
X132902698Y-70252039D01*
X133148147Y-70416042D01*
X133420875Y-70529010D01*
X133710401Y-70586600D01*
X134005599Y-70586600D01*
X134295125Y-70529010D01*
X134567853Y-70416042D01*
X134813302Y-70252039D01*
X135022039Y-70043302D01*
X135128000Y-69884719D01*
X135233961Y-70043302D01*
X135442698Y-70252039D01*
X135688147Y-70416042D01*
X135960875Y-70529010D01*
X136250401Y-70586600D01*
X136545599Y-70586600D01*
X136835125Y-70529010D01*
X137107853Y-70416042D01*
X137353302Y-70252039D01*
X137562039Y-70043302D01*
X137669692Y-69882187D01*
X137831146Y-70098293D01*
X138049512Y-70294817D01*
X138302022Y-70444964D01*
X138578973Y-70542963D01*
X138811000Y-70422464D01*
X138811000Y-69215000D01*
X138791000Y-69215000D01*
X138791000Y-68961000D01*
X138811000Y-68961000D01*
X138811000Y-67753536D01*
X139065000Y-67753536D01*
X139065000Y-68961000D01*
X139085000Y-68961000D01*
X139085000Y-69215000D01*
X139065000Y-69215000D01*
X139065000Y-70422464D01*
X139297027Y-70542963D01*
X139573978Y-70444964D01*
X139826488Y-70294817D01*
X140044854Y-70098293D01*
X140206308Y-69882187D01*
X140313961Y-70043302D01*
X140522698Y-70252039D01*
X140768147Y-70416042D01*
X141040875Y-70529010D01*
X141330401Y-70586600D01*
X141625599Y-70586600D01*
X141915125Y-70529010D01*
X142187853Y-70416042D01*
X142433302Y-70252039D01*
X142642039Y-70043302D01*
X142748000Y-69884719D01*
X142853961Y-70043302D01*
X143062698Y-70252039D01*
X143308147Y-70416042D01*
X143580875Y-70529010D01*
X143870401Y-70586600D01*
X144165599Y-70586600D01*
X144455125Y-70529010D01*
X144727853Y-70416042D01*
X144973302Y-70252039D01*
X145182039Y-70043302D01*
X145288000Y-69884719D01*
X145393961Y-70043302D01*
X145602698Y-70252039D01*
X145848147Y-70416042D01*
X146120875Y-70529010D01*
X146410401Y-70586600D01*
X146705599Y-70586600D01*
X146995125Y-70529010D01*
X147267853Y-70416042D01*
X147513302Y-70252039D01*
X147722039Y-70043302D01*
X147828000Y-69884719D01*
X147933961Y-70043302D01*
X148142698Y-70252039D01*
X148388147Y-70416042D01*
X148660875Y-70529010D01*
X148950401Y-70586600D01*
X149245599Y-70586600D01*
X149535125Y-70529010D01*
X149807853Y-70416042D01*
X150053302Y-70252039D01*
X150262039Y-70043302D01*
X150368000Y-69884719D01*
X150473961Y-70043302D01*
X150682698Y-70252039D01*
X150928147Y-70416042D01*
X151200875Y-70529010D01*
X151490401Y-70586600D01*
X151785599Y-70586600D01*
X152075125Y-70529010D01*
X152347853Y-70416042D01*
X152593302Y-70252039D01*
X152802039Y-70043302D01*
X152908000Y-69884719D01*
X153013961Y-70043302D01*
X153222698Y-70252039D01*
X153468147Y-70416042D01*
X153740875Y-70529010D01*
X154030401Y-70586600D01*
X154325599Y-70586600D01*
X154615125Y-70529010D01*
X154887853Y-70416042D01*
X155133302Y-70252039D01*
X155342039Y-70043302D01*
X155506042Y-69797853D01*
X155619010Y-69525125D01*
X155676600Y-69235599D01*
X155676600Y-68940401D01*
X156743400Y-68940401D01*
X156743400Y-69235599D01*
X156800990Y-69525125D01*
X156913958Y-69797853D01*
X157077961Y-70043302D01*
X157286698Y-70252039D01*
X157532147Y-70416042D01*
X157804875Y-70529010D01*
X158094401Y-70586600D01*
X158389599Y-70586600D01*
X158679125Y-70529010D01*
X158951853Y-70416042D01*
X159197302Y-70252039D01*
X159406039Y-70043302D01*
X159512000Y-69884719D01*
X159617961Y-70043302D01*
X159826698Y-70252039D01*
X160072147Y-70416042D01*
X160344875Y-70529010D01*
X160634401Y-70586600D01*
X160929599Y-70586600D01*
X161219125Y-70529010D01*
X161491853Y-70416042D01*
X161737302Y-70252039D01*
X161946039Y-70043302D01*
X162052000Y-69884719D01*
X162157961Y-70043302D01*
X162366698Y-70252039D01*
X162612147Y-70416042D01*
X162884875Y-70529010D01*
X163174401Y-70586600D01*
X163469599Y-70586600D01*
X163759125Y-70529010D01*
X164031853Y-70416042D01*
X164277302Y-70252039D01*
X164486039Y-70043302D01*
X164592000Y-69884719D01*
X164697961Y-70043302D01*
X164906698Y-70252039D01*
X165152147Y-70416042D01*
X165424875Y-70529010D01*
X165714401Y-70586600D01*
X166009599Y-70586600D01*
X166299125Y-70529010D01*
X166571853Y-70416042D01*
X166817302Y-70252039D01*
X167026039Y-70043302D01*
X167132000Y-69884719D01*
X167237961Y-70043302D01*
X167446698Y-70252039D01*
X167692147Y-70416042D01*
X167964875Y-70529010D01*
X168254401Y-70586600D01*
X168549599Y-70586600D01*
X168839125Y-70529010D01*
X169111853Y-70416042D01*
X169357302Y-70252039D01*
X169566039Y-70043302D01*
X169672000Y-69884719D01*
X169777961Y-70043302D01*
X169986698Y-70252039D01*
X170232147Y-70416042D01*
X170504875Y-70529010D01*
X170794401Y-70586600D01*
X171089599Y-70586600D01*
X171379125Y-70529010D01*
X171651853Y-70416042D01*
X171897302Y-70252039D01*
X172106039Y-70043302D01*
X172212000Y-69884719D01*
X172317961Y-70043302D01*
X172526698Y-70252039D01*
X172772147Y-70416042D01*
X173044875Y-70529010D01*
X173334401Y-70586600D01*
X173629599Y-70586600D01*
X173919125Y-70529010D01*
X174191853Y-70416042D01*
X174437302Y-70252039D01*
X174646039Y-70043302D01*
X174752000Y-69884719D01*
X174857961Y-70043302D01*
X175066698Y-70252039D01*
X175312147Y-70416042D01*
X175584875Y-70529010D01*
X175874401Y-70586600D01*
X176169599Y-70586600D01*
X176459125Y-70529010D01*
X176731853Y-70416042D01*
X176977302Y-70252039D01*
X177186039Y-70043302D01*
X177350042Y-69797853D01*
X177463010Y-69525125D01*
X177520600Y-69235599D01*
X177520600Y-68940401D01*
X177463010Y-68650875D01*
X177350042Y-68378147D01*
X177186039Y-68132698D01*
X176977302Y-67923961D01*
X176731853Y-67759958D01*
X176459125Y-67646990D01*
X176169599Y-67589400D01*
X175874401Y-67589400D01*
X175584875Y-67646990D01*
X175312147Y-67759958D01*
X175066698Y-67923961D01*
X174857961Y-68132698D01*
X174752000Y-68291281D01*
X174646039Y-68132698D01*
X174437302Y-67923961D01*
X174191853Y-67759958D01*
X173919125Y-67646990D01*
X173629599Y-67589400D01*
X173334401Y-67589400D01*
X173044875Y-67646990D01*
X172772147Y-67759958D01*
X172526698Y-67923961D01*
X172317961Y-68132698D01*
X172212000Y-68291281D01*
X172106039Y-68132698D01*
X171897302Y-67923961D01*
X171651853Y-67759958D01*
X171379125Y-67646990D01*
X171089599Y-67589400D01*
X170794401Y-67589400D01*
X170504875Y-67646990D01*
X170232147Y-67759958D01*
X169986698Y-67923961D01*
X169777961Y-68132698D01*
X169672000Y-68291281D01*
X169566039Y-68132698D01*
X169357302Y-67923961D01*
X169111853Y-67759958D01*
X168839125Y-67646990D01*
X168549599Y-67589400D01*
X168254401Y-67589400D01*
X167964875Y-67646990D01*
X167692147Y-67759958D01*
X167446698Y-67923961D01*
X167237961Y-68132698D01*
X167132000Y-68291281D01*
X167026039Y-68132698D01*
X166817302Y-67923961D01*
X166571853Y-67759958D01*
X166299125Y-67646990D01*
X166009599Y-67589400D01*
X165714401Y-67589400D01*
X165424875Y-67646990D01*
X165152147Y-67759958D01*
X164906698Y-67923961D01*
X164697961Y-68132698D01*
X164592000Y-68291281D01*
X164486039Y-68132698D01*
X164277302Y-67923961D01*
X164031853Y-67759958D01*
X163759125Y-67646990D01*
X163469599Y-67589400D01*
X163174401Y-67589400D01*
X162884875Y-67646990D01*
X162612147Y-67759958D01*
X162366698Y-67923961D01*
X162157961Y-68132698D01*
X162052000Y-68291281D01*
X161946039Y-68132698D01*
X161737302Y-67923961D01*
X161491853Y-67759958D01*
X161219125Y-67646990D01*
X160929599Y-67589400D01*
X160634401Y-67589400D01*
X160344875Y-67646990D01*
X160072147Y-67759958D01*
X159826698Y-67923961D01*
X159617961Y-68132698D01*
X159512000Y-68291281D01*
X159406039Y-68132698D01*
X159197302Y-67923961D01*
X158951853Y-67759958D01*
X158679125Y-67646990D01*
X158389599Y-67589400D01*
X158094401Y-67589400D01*
X157804875Y-67646990D01*
X157532147Y-67759958D01*
X157286698Y-67923961D01*
X157077961Y-68132698D01*
X156913958Y-68378147D01*
X156800990Y-68650875D01*
X156743400Y-68940401D01*
X155676600Y-68940401D01*
X155619010Y-68650875D01*
X155506042Y-68378147D01*
X155342039Y-68132698D01*
X155133302Y-67923961D01*
X154887853Y-67759958D01*
X154615125Y-67646990D01*
X154325599Y-67589400D01*
X154030401Y-67589400D01*
X153740875Y-67646990D01*
X153468147Y-67759958D01*
X153222698Y-67923961D01*
X153013961Y-68132698D01*
X152908000Y-68291281D01*
X152802039Y-68132698D01*
X152593302Y-67923961D01*
X152347853Y-67759958D01*
X152075125Y-67646990D01*
X151785599Y-67589400D01*
X151490401Y-67589400D01*
X151200875Y-67646990D01*
X150928147Y-67759958D01*
X150682698Y-67923961D01*
X150473961Y-68132698D01*
X150368000Y-68291281D01*
X150262039Y-68132698D01*
X150053302Y-67923961D01*
X149807853Y-67759958D01*
X149535125Y-67646990D01*
X149245599Y-67589400D01*
X148950401Y-67589400D01*
X148660875Y-67646990D01*
X148388147Y-67759958D01*
X148142698Y-67923961D01*
X147933961Y-68132698D01*
X147828000Y-68291281D01*
X147722039Y-68132698D01*
X147513302Y-67923961D01*
X147267853Y-67759958D01*
X146995125Y-67646990D01*
X146705599Y-67589400D01*
X146410401Y-67589400D01*
X146120875Y-67646990D01*
X145848147Y-67759958D01*
X145602698Y-67923961D01*
X145393961Y-68132698D01*
X145288000Y-68291281D01*
X145182039Y-68132698D01*
X144973302Y-67923961D01*
X144727853Y-67759958D01*
X144455125Y-67646990D01*
X144165599Y-67589400D01*
X143870401Y-67589400D01*
X143580875Y-67646990D01*
X143308147Y-67759958D01*
X143062698Y-67923961D01*
X142853961Y-68132698D01*
X142748000Y-68291281D01*
X142642039Y-68132698D01*
X142433302Y-67923961D01*
X142187853Y-67759958D01*
X141915125Y-67646990D01*
X141625599Y-67589400D01*
X141330401Y-67589400D01*
X141040875Y-67646990D01*
X140768147Y-67759958D01*
X140522698Y-67923961D01*
X140313961Y-68132698D01*
X140206308Y-68293813D01*
X140044854Y-68077707D01*
X139826488Y-67881183D01*
X139573978Y-67731036D01*
X139297027Y-67633037D01*
X139065000Y-67753536D01*
X138811000Y-67753536D01*
X138578973Y-67633037D01*
X138302022Y-67731036D01*
X138049512Y-67881183D01*
X137831146Y-68077707D01*
X137669692Y-68293813D01*
X137562039Y-68132698D01*
X137353302Y-67923961D01*
X137107853Y-67759958D01*
X136835125Y-67646990D01*
X136545599Y-67589400D01*
X136250401Y-67589400D01*
X135960875Y-67646990D01*
X135688147Y-67759958D01*
X135442698Y-67923961D01*
X135233961Y-68132698D01*
X135128000Y-68291281D01*
X135022039Y-68132698D01*
X134813302Y-67923961D01*
X134567853Y-67759958D01*
X134295125Y-67646990D01*
X134005599Y-67589400D01*
X133710401Y-67589400D01*
X133420875Y-67646990D01*
X133148147Y-67759958D01*
X132902698Y-67923961D01*
X132693961Y-68132698D01*
X132588000Y-68291281D01*
X132482039Y-68132698D01*
X132273302Y-67923961D01*
X132027853Y-67759958D01*
X131755125Y-67646990D01*
X131465599Y-67589400D01*
X131170401Y-67589400D01*
X130880875Y-67646990D01*
X130608147Y-67759958D01*
X130362698Y-67923961D01*
X130153961Y-68132698D01*
X129989958Y-68378147D01*
X129928906Y-68525540D01*
X129911110Y-68436075D01*
X129742631Y-68029331D01*
X129498038Y-67663271D01*
X129186729Y-67351962D01*
X128820669Y-67107369D01*
X128413925Y-66938890D01*
X127982128Y-66853000D01*
X127541872Y-66853000D01*
X127110075Y-66938890D01*
X126703331Y-67107369D01*
X126337271Y-67351962D01*
X126025962Y-67663271D01*
X125781369Y-68029331D01*
X125612890Y-68436075D01*
X125527000Y-68867872D01*
X112660000Y-68867872D01*
X112660000Y-66660000D01*
X176726620Y-66660000D01*
X178340000Y-68273381D01*
M02*
