M48
; DRILL file {KiCad (5.1.5)-3} date 05/16/20 21:06:12
; FORMAT={-:-/ absolute / inch / decimal}
; #@! TF.CreationDate,2020-05-16T21:06:12+02:00
; #@! TF.GenerationSoftware,Kicad,Pcbnew,(5.1.5)-3
; #@! TF.FileFunction,Plated,1,4,PTH
FMAT,2
INCH
T1C0.0197
T2C0.0315
T3C0.0394
T4C0.0400
%
G90
G05
T1
X6.75Y-2.92
X4.63Y-4.08
X6.7Y-4.49
X6.9291Y-3.0709
X6.7Y-4.37
X4.63Y-4.23
X4.63Y-4.4
X6.92Y-2.92
X4.63Y-3.74
T2
X6.7Y-3.48
X6.7Y-3.78
X5.16Y-3.54
X5.3569Y-3.54
X6.4513Y-3.53
X6.53Y-3.53
X6.26Y-3.99
X6.56Y-3.99
X6.26Y-3.84
X6.56Y-3.84
X6.4513Y-4.26
X6.53Y-4.26
X5.11Y-3.7402
X5.41Y-3.7402
X5.95Y-4.07
X5.95Y-4.37
X5.55Y-4.07
X5.55Y-4.37
X6.16Y-3.42
X6.16Y-3.6169
X5.2Y-4.2
X5.2787Y-4.2
X5.1Y-3.9764
X5.4Y-3.9764
X5.6055Y-3.637
X5.6055Y-3.737
X5.6055Y-3.837
X5.6055Y-3.937
X5.9055Y-3.637
X5.9055Y-3.737
X5.9055Y-3.837
X5.9055Y-3.937
X6.23Y-4.1131
X6.23Y-4.31
T3
X6.6929Y-4.0126
X6.6929Y-4.1126
X6.6929Y-4.2126
X5.079Y-2.96
X5.079Y-3.1372
X5.3349Y-2.96
X5.3349Y-3.1372
T4
X5.17Y-2.72
X5.27Y-2.72
X5.37Y-2.72
X5.47Y-2.72
X5.53Y-4.62
X5.57Y-2.72
X5.63Y-4.62
X5.67Y-2.72
X5.73Y-4.62
X5.77Y-2.72
X5.83Y-4.62
X5.87Y-2.72
X5.93Y-4.62
X5.97Y-2.72
X6.03Y-4.62
X6.07Y-2.72
X6.13Y-4.62
X6.23Y-2.72
X6.23Y-4.62
X6.33Y-2.72
X6.43Y-2.72
X6.43Y-4.62
X6.53Y-2.72
X6.53Y-4.62
X6.63Y-2.72
X6.63Y-4.62
X6.73Y-2.72
X6.73Y-4.62
X6.83Y-2.72
X6.83Y-4.62
X6.93Y-2.72
X6.93Y-4.62
X6.935Y-3.52
X6.935Y-3.62
X6.935Y-3.72
X7.035Y-3.52
X7.035Y-3.62
X7.035Y-3.72
T0
M30
